<svg width="41" height="40" viewBox="0 0 41 40" fill="none" xmlns="http://www.w3.org/2000/svg">
<path d="M5.08487 6.907C5.58074 6.90726 6.05623 7.10437 6.40686 7.455C6.7575 7.80564 6.9546 8.28112 6.95487 8.777V31.223C6.95487 31.7191 6.7578 32.1949 6.40701 32.5456C6.05622 32.8964 5.58045 33.0935 5.08437 33.0935C4.58828 33.0935 4.11251 32.8964 3.76172 32.5456C3.41094 32.1949 3.21387 31.7191 3.21387 31.223V8.777C3.21413 8.28095 3.41137 7.80531 3.76222 7.45465C4.11308 7.10398 4.58882 6.907 5.08487 6.907ZM35.0149 6.907C35.5108 6.907 35.9865 7.10402 36.3372 7.45471C36.6879 7.8054 36.8849 8.28104 36.8849 8.777V31.223C36.8849 31.7191 36.6878 32.1949 36.337 32.5456C35.9862 32.8964 35.5105 33.0935 35.0144 33.0935C34.5183 33.0935 34.0425 32.8964 33.6917 32.5456C33.3409 32.1949 33.1439 31.7191 33.1439 31.223V8.777C33.1439 8.53134 33.1923 8.28809 33.2863 8.06115C33.3803 7.83421 33.5182 7.62801 33.6919 7.45435C33.8657 7.28069 34.0719 7.14297 34.2989 7.04906C34.5259 6.95514 34.7692 6.90687 35.0149 6.907ZM29.4019 20C29.4019 21.8496 28.8534 23.6578 27.8258 25.1957C26.7982 26.7336 25.3376 27.9323 23.6287 28.6401C21.9199 29.3479 20.0395 29.5332 18.2254 29.1723C16.4113 28.8115 14.7449 27.9208 13.437 26.6129C12.1291 25.305 11.2384 23.6386 10.8776 21.8245C10.5167 20.0104 10.7019 18.13 11.4097 16.4211C12.1176 14.7123 13.3162 13.2517 14.8542 12.2241C16.3921 11.1965 18.2002 10.648 20.0499 10.648C21.2781 10.6477 22.4943 10.8895 23.629 11.3593C24.7638 11.8292 25.7948 12.5181 26.6633 13.3866C27.5318 14.255 28.2206 15.2861 28.6905 16.4208C29.1604 17.5556 29.4021 18.7718 29.4019 20ZM19.1149 25.536V23.572C18.772 23.5258 18.4431 23.4061 18.1509 23.221L16.8009 24.577C17.4762 25.0573 18.2481 25.3846 19.0629 25.536H19.1149ZM15.4729 23.251L16.8289 21.901C16.6507 21.6002 16.516 21.2756 16.4289 20.937H14.5149C14.6561 21.771 14.984 22.5624 15.4739 23.252L15.4729 23.251ZM14.5149 19.065H16.4249C16.512 18.7264 16.6467 18.4018 16.8249 18.101L15.4689 16.751C14.979 17.4406 14.6511 18.232 14.5099 19.066L14.5149 19.065ZM16.7999 15.423L18.1499 16.779C18.4372 16.6105 18.7433 16.4763 19.0619 16.379V14.465C18.2471 14.6164 17.4752 14.9427 16.7999 15.423ZM21.9499 23.223C21.6576 23.4081 21.3287 23.5278 20.9859 23.574V25.538C21.8199 25.3967 22.6113 25.0689 23.3009 24.579L21.9499 23.223ZM24.6269 23.252C25.1168 22.5624 25.4446 21.771 25.5859 20.937H23.6209C23.5747 21.2799 23.455 21.6087 23.2699 21.901L24.6269 23.252ZM23.6219 19.067H25.5849C25.4436 18.233 25.1158 17.4416 24.6259 16.752L23.2699 18.102C23.446 18.3798 23.5653 18.6898 23.6209 19.014L23.6219 19.067ZM20.9859 14.467V16.378C21.3245 16.4651 21.649 16.5998 21.9499 16.778L23.2999 15.422C22.6103 14.9321 21.8189 14.6043 20.9849 14.463L20.9859 14.467ZM21.3859 21.318C21.7328 20.9663 21.9262 20.4914 21.9237 19.9973C21.9212 19.5033 21.7229 19.0304 21.3724 18.6822C21.0218 18.334 20.5476 18.139 20.0535 18.1399C19.5595 18.1407 19.0859 18.3373 18.7366 18.6867C18.3872 19.036 18.1906 19.5096 18.1897 20.0037C18.1889 20.4977 18.3839 20.972 18.7321 21.3225C19.0802 21.6731 19.5531 21.8713 20.0472 21.8738C20.5412 21.8764 21.0161 21.683 21.3679 21.336L21.3859 21.318Z" fill="#17645D"/>
<path opacity="0.4" d="M11.3751 16.499C10.9301 17.5946 10.6999 18.7655 10.6971 19.948C10.6899 21.1655 10.9202 22.3727 11.3751 23.502L6.95605 22.619V17.382L11.3751 16.499ZM28.7241 23.499C29.1789 22.3697 29.4092 21.1625 29.4021 19.945C29.3992 18.7625 29.169 17.5916 28.7241 16.496L33.1431 17.379V22.616L28.7241 23.499Z" fill="#17645D"/>
</svg>
