<svg width="20" height="18" viewBox="0 0 20 18" fill="none" xmlns="http://www.w3.org/2000/svg">
<path d="M17.3712 1.078L15.5272 2.858C13.9964 1.52168 12.0322 0.787108 10.0002 0.790998C8.27919 0.769118 6.59496 1.2893 5.18607 2.27786C3.77717 3.26642 2.71505 4.67323 2.15016 6.299C2.10222 6.44739 2.08457 6.60389 2.09823 6.75924C2.1119 6.91458 2.15662 7.0656 2.22973 7.20334C2.30284 7.34108 2.40287 7.46274 2.52387 7.56111C2.64487 7.65948 2.78439 7.73255 2.93416 7.776C3.23755 7.87462 3.56746 7.85088 3.85361 7.70986C4.13976 7.56884 4.35955 7.32167 4.46616 7.021C4.86384 5.87472 5.61233 4.88276 6.60546 4.18579C7.5986 3.48881 8.78597 3.12222 9.99916 3.138C11.3927 3.13743 12.7417 3.6282 13.8092 4.524L12.0942 6.145C11.9595 6.28744 11.8696 6.46631 11.8358 6.65939C11.802 6.85248 11.8256 7.05124 11.9038 7.23099C11.982 7.41074 12.1113 7.56353 12.2757 7.67039C12.44 7.77724 12.6321 7.83344 12.8282 7.832H18.4142C18.6005 7.831 18.7791 7.75727 18.9119 7.62652C19.0448 7.49576 19.1213 7.31833 19.1252 7.132V1.778C19.118 1.57799 19.0529 1.38437 18.9377 1.22072C18.8225 1.05707 18.6622 0.930438 18.4763 0.856256C18.2905 0.782075 18.087 0.763541 17.8908 0.802911C17.6946 0.842282 17.514 0.937854 17.3712 1.078Z" fill="#17645D"/>
<path opacity="0.4" d="M17.8481 11.706C17.2799 13.3362 16.2124 14.746 14.7973 15.7348C13.3821 16.7236 11.6912 17.2412 9.96505 17.214C7.93183 17.2173 5.96674 16.4813 4.43606 15.143L2.59206 16.923C2.44868 17.0617 2.26759 17.155 2.07144 17.1913C1.8753 17.2276 1.67281 17.2052 1.48932 17.127C1.30583 17.0487 1.14949 16.9181 1.03987 16.7514C0.930258 16.5847 0.872231 16.3895 0.873056 16.19V10.873C0.876958 10.6869 0.953324 10.5096 1.08592 10.3788C1.21851 10.2481 1.39686 10.1743 1.58305 10.173H7.17305C7.36952 10.1707 7.56218 10.2273 7.72623 10.3354C7.89027 10.4436 8.01818 10.5983 8.09348 10.7798C8.16878 10.9613 8.18803 11.1612 8.14875 11.3537C8.10946 11.5462 8.01344 11.7225 7.87306 11.86L6.19306 13.481C7.26043 14.3769 8.60954 14.8677 10.0031 14.867C11.2158 14.8827 12.4028 14.5164 13.3958 13.8201C14.3888 13.1237 15.1376 12.1325 15.5361 10.987C15.6429 10.6865 15.8627 10.4395 16.1488 10.2985C16.4349 10.1575 16.7647 10.1336 17.0681 10.232C17.2185 10.2737 17.3589 10.3456 17.4806 10.4434C17.6023 10.5413 17.7027 10.6629 17.7757 10.8009C17.8487 10.9389 17.8928 11.0904 17.9053 11.246C17.9177 11.4016 17.8982 11.5581 17.8481 11.706Z" fill="#17645D"/>
</svg>
