<svg width="41" height="40" viewBox="0 0 41 40" fill="none" xmlns="http://www.w3.org/2000/svg">
<path d="M31.2828 7.764C31.5086 7.53765 31.7768 7.35807 32.0721 7.23555C32.3675 7.11302 32.684 7.04995 33.0038 7.04995C33.3235 7.04995 33.6401 7.11302 33.9354 7.23555C34.2307 7.35807 34.499 7.53765 34.7248 7.764L35.8368 8.874C36.0645 9.10165 36.2448 9.37215 36.3674 9.66987C36.49 9.9676 36.5524 10.2867 36.551 10.6086C36.5496 10.9306 36.4844 11.2491 36.3593 11.5458C36.2341 11.8424 36.0514 12.1113 35.8218 12.337L33.8018 14.317L29.2708 9.78L31.2828 7.764ZM32.6378 15.453L25.2678 22.666C24.9162 23.0107 24.4908 23.2709 24.0238 23.427L20.3948 24.64C20.1801 24.7142 19.9488 24.726 19.7277 24.674C19.5066 24.6219 19.3048 24.5082 19.1458 24.346C18.9871 24.1853 18.8757 23.984 18.8239 23.7643C18.772 23.5445 18.7817 23.3147 18.8518 23.1L20.0598 19.481C20.2178 19.0016 20.4875 18.5666 20.8468 18.212L28.1158 10.931L32.6378 15.453Z" fill="#17645D"/>
<path opacity="0.4" d="M4.17188 19.128C4.17662 17.6228 4.77651 16.1807 5.84063 15.1162C6.90475 14.0517 8.34672 13.4513 9.85187 13.446H17.9789C19.6509 13.34 20.3939 15.17 19.9789 15.614C19.3835 16.1779 18.8316 16.786 18.3279 17.433L17.8069 18.633C17.2444 20.213 16.7769 21.8252 16.4069 23.461V24.623C16.6069 25.391 17.3119 27.366 20.5609 27.123L24.6429 25.714C25.3869 25.368 26.0998 24.9588 26.7739 24.491L29.5679 21.769C30.6419 20.919 30.8889 20.76 31.7869 20.76C32.0002 20.7599 32.2114 20.8018 32.4085 20.8833C32.6056 20.9649 32.7847 21.0845 32.9355 21.2354C33.0863 21.3862 33.206 21.5653 33.2875 21.7624C33.3691 21.9594 33.411 22.1707 33.4109 22.384V27.262C33.4109 29.506 31.1539 32.942 27.7309 32.942H9.85187C8.3645 32.8814 6.95441 32.2633 5.902 31.2105C4.84958 30.1577 4.23193 28.7474 4.17188 27.26L4.17188 19.128Z" fill="#17645D"/>
<path d="M8.86133 25C9.68976 25 10.3613 24.3284 10.3613 23.5C10.3613 22.6716 9.68976 22 8.86133 22C8.0329 22 7.36133 22.6716 7.36133 23.5C7.36133 24.3284 8.0329 25 8.86133 25Z" fill="#17645D"/>
<path d="M12.8613 25C13.6898 25 14.3613 24.3284 14.3613 23.5C14.3613 22.6716 13.6898 22 12.8613 22C12.0329 22 11.3613 22.6716 11.3613 23.5C11.3613 24.3284 12.0329 25 12.8613 25Z" fill="#17645D"/>
</svg>
