<svg width="25" height="24" viewBox="0 0 25 24" fill="none" xmlns="http://www.w3.org/2000/svg">
<path d="M20.3892 3.042C20.5289 3.04329 20.667 3.07229 20.7954 3.12732C20.9238 3.18235 21.04 3.26232 21.1373 3.36258C21.2346 3.46285 21.311 3.58142 21.3621 3.71144C21.4133 3.84145 21.4381 3.98032 21.4352 4.12V9.938C21.4369 10.0366 21.4192 10.1346 21.383 10.2264C21.3469 10.3182 21.293 10.4019 21.2244 10.4729C21.1559 10.5438 21.0741 10.6006 20.9836 10.6399C20.8931 10.6792 20.7958 10.7003 20.6972 10.702H15.0892C14.9494 10.6997 14.8115 10.6697 14.6834 10.6138C14.5552 10.5579 14.4395 10.4772 14.3427 10.3763C14.2459 10.2755 14.1701 10.1564 14.1195 10.0261C14.069 9.89578 14.0447 9.75674 14.0482 9.617C14.0473 9.33526 14.1572 9.06447 14.3542 8.863L19.6312 3.363C19.8337 3.16323 20.1048 3.0484 20.3892 3.042Z" fill="#17645D"/>
<path opacity="0.4" d="M16.6213 16.818C16.7858 16.8207 16.9481 16.8559 17.099 16.9214C17.2498 16.9869 17.3863 17.0816 17.5005 17.1999C17.6148 17.3182 17.7046 17.4579 17.7648 17.611C17.8249 17.7641 17.8544 17.9275 17.8513 18.092C17.8513 19.492 14.7113 20.9 12.1933 20.9C9.8786 20.8264 7.6833 19.8552 6.07194 18.1918C4.46058 16.5284 3.55957 14.3034 3.55957 11.9875C3.55957 9.67161 4.46058 7.44657 6.07194 5.78318C7.6833 4.11979 9.8786 3.14857 12.1933 3.075C14.2825 3.09225 16.2912 3.88237 17.8323 5.293L16.0913 7.098C15.0061 6.16328 13.6236 5.64537 12.1913 5.637C10.5428 5.69173 8.98003 6.38509 7.83319 7.57062C6.68636 8.75616 6.04523 10.341 6.04523 11.9905C6.04523 13.64 6.68636 15.2248 7.83319 16.4104C8.98003 17.5959 10.5428 18.2893 12.1913 18.344C15.0063 18.346 15.6323 16.818 16.6213 16.818Z" fill="#17645D"/>
</svg>
