<svg width="42" height="40" viewBox="0 0 42 40" fill="none" xmlns="http://www.w3.org/2000/svg">
<path d="M21.1178 8.9291C20.3463 8.92918 19.5768 9.00732 18.8218 9.16226V4.7639C21.1072 4.43234 23.4395 4.60139 25.6497 5.25877C27.8598 5.91615 29.8923 7.04538 31.5996 8.56455L33.6395 6.57283C33.7949 6.42264 33.9922 6.32042 34.2067 6.27894C34.4212 6.23746 34.6436 6.25855 34.8459 6.33958C35.0482 6.4206 35.2216 6.55798 35.3445 6.73457C35.4673 6.91116 35.5342 7.11915 35.5366 7.33257V14.4676C35.5366 14.7558 35.4193 15.0322 35.2105 15.236C35.0017 15.4398 34.7184 15.5543 34.4231 15.5543H27.1109C26.8924 15.5523 26.6793 15.4875 26.4982 15.3682C26.3172 15.2488 26.1761 15.0801 26.0925 14.883C26.009 14.686 25.9867 14.4693 26.0285 14.26C26.0702 14.0507 26.1742 13.8579 26.3273 13.7058L28.4533 11.6312C26.4261 9.88769 23.8158 8.92772 21.1138 8.93206L21.1178 8.9291ZM15.9154 26.0335L13.9028 27.9906C15.9105 29.6728 18.4706 30.5953 21.1168 30.5899C21.8359 30.5899 22.5535 30.5237 23.2599 30.3924V34.7789C22.5498 34.8743 21.8337 34.9218 21.1168 34.9211C17.2998 34.8995 13.6201 33.5286 10.7595 31.0622L8.60116 33.1675C8.44536 33.3173 8.24781 33.419 8.03315 33.46C7.81849 33.5009 7.59623 33.4792 7.3941 33.3977C7.19198 33.3161 7.01894 33.1783 6.89658 33.0014C6.77422 32.8244 6.70795 32.6163 6.70605 32.4028V25.2688C6.70605 24.9806 6.82338 24.7042 7.03221 24.5004C7.24105 24.2966 7.52429 24.1821 7.81963 24.1821H15.1267C15.3434 24.188 15.5537 24.2549 15.7323 24.3746C15.911 24.4944 16.0504 24.6619 16.1339 24.8571C16.2174 25.0522 16.2414 25.2668 16.203 25.475C16.1646 25.6831 16.0654 25.876 15.9174 26.0305L15.9154 26.0335Z" fill="#17645D"/>
<path opacity="0.4" d="M15.5881 5.80419C15.8834 5.80419 16.1667 5.91868 16.3755 6.12249C16.5844 6.32629 16.7017 6.60271 16.7017 6.89093V14.021C16.701 14.2348 16.6356 14.4437 16.5139 14.6214C16.3921 14.7992 16.2193 14.938 16.0171 15.0203C15.8149 15.1027 15.5923 15.125 15.3771 15.0845C15.162 15.044 14.9639 14.9424 14.8076 14.7926L12.6817 12.7179C10.9626 14.6781 10.0189 17.1739 10.0212 19.7541C10.0207 20.493 10.0963 21.2301 10.247 21.9542H5.74304C5.63474 21.2256 5.58061 20.4903 5.58107 19.7541C5.57617 16.0236 6.98574 12.4232 9.53833 9.64633L7.49238 7.64869C7.33906 7.50155 7.233 7.31401 7.18716 7.10898C7.14132 6.90396 7.15768 6.69034 7.23425 6.49425C7.31083 6.29816 7.44429 6.12809 7.61832 6.00483C7.79235 5.88158 7.99941 5.81048 8.21418 5.80023L15.5881 5.80419ZM27.4325 24.9507L29.4441 26.9138C31.2373 24.9402 32.2239 22.3918 32.2159 19.7541C32.2187 19.0378 32.1468 18.3231 32.0013 17.6211H36.5032C36.6068 18.3275 36.6579 19.0404 36.656 19.7541C36.6598 23.5388 35.212 27.1879 32.5975 29.9833L34.7478 32.0817C34.9009 32.2338 35.0049 32.4265 35.0466 32.6358C35.0884 32.8452 35.0661 33.0619 34.9826 33.2589C34.899 33.456 34.7579 33.6247 34.5769 33.744C34.3958 33.8634 34.1827 33.9281 33.9642 33.9302H26.653C26.3577 33.9302 26.0745 33.8157 25.8656 33.6119C25.6568 33.4081 25.5395 33.1317 25.5395 32.8434V25.7154C25.5416 25.5021 25.6079 25.2942 25.7302 25.1175C25.8525 24.9408 26.0254 24.8031 26.2273 24.7216C26.4292 24.64 26.6513 24.6183 26.8658 24.659C27.0802 24.6998 27.2777 24.8012 27.4336 24.9507H27.4325Z" fill="#17645D"/>
</svg>
