<svg width="41" height="40" viewBox="0 0 41 40" fill="none" xmlns="http://www.w3.org/2000/svg">
<path d="M21.4814 30.179C18.8568 30.179 16.158 29.2373 14.7828 28.6759C14.0414 28.3731 13.6838 27.5233 13.9856 26.7817C14.2091 26.2312 14.7365 25.8754 15.3293 25.8754C15.5182 25.8754 15.7035 25.9121 15.8802 25.9845C17.9043 26.8101 19.8938 27.2647 21.4821 27.2647C22.3997 27.2647 23.1337 27.1157 23.6635 26.8219C24.2201 26.5139 24.5358 26.0395 24.6571 25.3289C24.8073 24.4481 24.6092 23.8964 23.9735 23.4248C23.2794 22.9098 22.0694 22.4979 20.342 22.0003C18.1757 21.3784 15.2633 20.5426 14.2445 18.2831C14.0589 21.8848 11.0545 24.7585 7.38808 24.7585H3.42915V28.7175C3.42915 29.5193 2.77762 30.1717 1.97678 30.1717C1.17594 30.1717 0.524414 29.5193 0.524414 28.7175V12.478C0.524414 11.6762 1.17594 11.0238 1.97678 11.0238H7.38992C8.94043 11.0238 10.4651 11.5707 11.6829 12.5636C12.7192 13.4084 13.4957 14.5397 13.91 15.7941C13.9244 15.6579 13.9433 15.5224 13.9669 15.3862C14.2033 14.0035 14.9871 12.8226 16.1741 12.0613C17.2415 11.3745 18.6265 11.0262 20.2906 11.0262C21.6553 11.0262 23.2335 11.2608 24.9816 11.7236C25.7565 11.9301 26.2202 12.7276 26.0155 13.5014C25.8469 14.1383 25.2682 14.5832 24.6081 14.5832C24.4837 14.5832 24.3592 14.5671 24.2379 14.5353C22.7137 14.1313 21.3829 13.9264 20.2821 13.9264C19.1971 13.9264 18.3427 14.1215 17.7428 14.5062C17.2356 14.8327 16.9279 15.2941 16.8283 15.8776C16.6773 16.7583 16.8751 17.31 17.5112 17.7817C18.2053 18.2965 19.4156 18.7085 21.1434 19.2063C22.6821 19.6497 24.4225 20.1512 25.735 21.1215C27.2816 22.2648 27.865 23.8017 27.5186 25.8202C27.4199 26.3899 27.2466 26.9153 27.002 27.3875C27.1859 27.3062 27.386 27.2633 27.5891 27.2633H31.548V13.9304H27.5891C26.7872 13.9304 26.1349 13.2781 26.1349 12.4762C26.1349 11.6744 26.7872 11.022 27.5891 11.022H38.4153C39.2162 11.022 39.8677 11.6744 39.8677 12.4762C39.8677 13.2781 39.2162 13.9304 38.4153 13.9304H34.4564V27.2633H38.4153C39.2162 27.2633 39.8677 27.9156 39.8677 28.7175C39.8677 29.5193 39.2162 30.1717 38.4153 30.1717H27.5891C26.7872 30.1717 26.1349 29.5193 26.1349 28.7175C26.1349 28.6645 26.1377 28.6119 26.1434 28.5597C25.8292 28.873 25.4697 29.1426 25.0706 29.3635C24.0987 29.9046 22.891 30.179 21.4814 30.179ZM3.43098 21.8501H7.28992L7.38992 21.8483C9.57289 21.8483 11.3489 20.0723 11.3489 17.8893C11.3489 15.7064 9.57289 13.9304 7.38992 13.9304H3.43098V21.8501Z" fill="#17645D"/>
<path d="M21.4818 30.079C22.7349 30.079 23.9697 29.8622 25.0225 29.2761C25.537 28.9912 25.9762 28.6293 26.3363 28.203C26.272 28.361 26.2352 28.5356 26.2352 28.7175C26.2352 29.4653 26.8398 30.0717 27.5894 30.0717H38.4157C39.1636 30.0717 39.7681 29.4653 39.7681 28.7175C39.7681 27.9696 39.1636 27.3633 38.4157 27.3633H34.3568V13.8304H38.4157C39.1636 13.8304 39.7681 13.224 39.7681 12.4762C39.7681 11.7284 39.1636 11.122 38.4157 11.122H27.5895C26.8416 11.122 26.2352 11.7284 26.2352 12.4762C26.2352 13.224 26.8398 13.8304 27.5895 13.8304H31.6484V27.3633H27.5895C27.2587 27.3633 26.9555 27.4827 26.7203 27.6793C27.0639 27.1336 27.2991 26.5033 27.4204 25.8033C28.1866 21.3382 24.1001 20.1623 21.1161 19.3023C17.5 18.2605 16.4232 17.6505 16.7301 15.8608C16.8348 15.2471 17.1582 14.7638 17.6892 14.4221C18.5602 13.8635 20.4032 13.4151 24.2637 14.4386C24.9858 14.6279 25.7281 14.1979 25.9192 13.4758C26.1103 12.7537 25.6803 12.0132 24.9564 11.8202C21.0904 10.7968 18.156 10.9052 16.2285 12.1455C15.0654 12.8915 14.2973 14.0491 14.0658 15.4033C14.0051 15.7542 13.9794 16.0813 13.9757 16.3937C13.2757 13.4133 10.5893 11.1238 7.39031 11.1238H1.97717C1.22933 11.1238 0.624805 11.7302 0.624805 12.478V28.7175C0.624805 29.4653 1.22933 30.0717 1.97717 30.0717C2.72502 30.0717 3.32954 29.4653 3.32954 28.7175V24.6585H7.38847C11.1185 24.6585 14.154 21.6231 14.154 17.9298C14.154 17.8636 14.1503 17.7993 14.1485 17.735C14.911 20.3295 17.9888 21.2206 20.3701 21.9042C23.9862 22.946 25.0611 23.5561 24.7561 25.3457C24.6293 26.0881 24.2967 26.586 23.7124 26.9094C22.2112 27.7418 19.1225 27.4147 15.8426 26.077C15.148 25.7922 14.3598 26.1267 14.0787 26.8194C13.7975 27.5103 14.1283 28.3004 14.821 28.5833C16.1623 29.1309 18.8652 30.079 21.4818 30.079ZM3.33137 13.8304H7.39031C9.62833 13.8304 11.4493 15.6513 11.4493 17.8893C11.4493 20.1274 9.6265 21.9483 7.39031 21.9483V21.9501H3.33137V13.8304ZM21.4818 30.279C18.8401 30.279 16.1273 29.3326 14.7454 28.7685C13.953 28.4448 13.5708 27.5366 13.8934 26.744C14.1322 26.1556 14.696 25.7754 15.3297 25.7754C15.5316 25.7754 15.7297 25.8146 15.9185 25.892C17.9308 26.7127 19.9069 27.1647 21.4825 27.1647C22.3703 27.1647 23.1079 27.0159 23.6154 26.7345C24.1433 26.4423 24.4431 25.9904 24.5589 25.3121C24.8252 23.7498 24.0716 23.1787 20.3147 22.0964C18.2343 21.4992 15.4721 20.7063 14.3169 18.6478C13.9544 22.1321 10.9855 24.8585 7.38847 24.8585H3.52954V28.7175C3.52954 29.5745 2.83315 30.2717 1.97717 30.2717C1.12119 30.2717 0.424805 29.5745 0.424805 28.7175V12.478C0.424805 11.6211 1.12119 10.9238 1.97717 10.9238H7.39031C8.96379 10.9238 10.5108 11.4787 11.7465 12.4861C12.6912 13.2563 13.4231 14.2613 13.8667 15.3808C13.8674 15.377 13.868 15.3731 13.8687 15.3692C14.1099 13.9586 14.9096 12.7538 16.1205 11.9771C17.2042 11.2798 18.6074 10.9262 20.291 10.9262C21.6643 10.9262 23.2511 11.1619 25.0076 11.6269C25.4855 11.7543 25.8527 12.0919 26.0357 12.5137C26.0354 12.5012 26.0352 12.4887 26.0352 12.4762C26.0352 11.6192 26.7325 10.922 27.5895 10.922H38.4157C39.2717 10.922 39.9681 11.6192 39.9681 12.4762C39.9681 13.3332 39.2717 14.0304 38.4157 14.0304H34.5568V27.1633H38.4157C39.2717 27.1633 39.9681 27.8605 39.9681 28.7175C39.9681 29.5745 39.2717 30.2717 38.4157 30.2717H27.5894C26.7596 30.2717 26.0795 29.6179 26.0373 28.7983C25.7607 29.0475 25.4536 29.266 25.1194 29.451C24.1327 30.0004 22.9086 30.279 21.4818 30.279ZM20.2825 14.0264C19.2169 14.0264 18.3808 14.2162 17.7972 14.5904C17.3147 14.901 17.0219 15.3398 16.9272 15.8944C16.6594 17.4564 17.4131 18.0273 21.1715 19.1102C22.6419 19.5339 24.4679 20.0601 25.7949 21.0411C27.3747 22.209 27.9709 23.7778 27.6175 25.8371C27.5321 26.3301 27.3917 26.7909 27.1983 27.2136C27.3253 27.1804 27.4568 27.1633 27.5895 27.1633H31.4484V14.0304H27.5895C26.9524 14.0304 26.4036 13.6451 26.1639 13.0952C26.1672 13.2376 26.1507 13.3826 26.1125 13.5269C25.9324 14.2077 25.3139 14.6832 24.6085 14.6832C24.4756 14.6832 24.3425 14.666 24.213 14.6321C22.6969 14.2301 21.3746 14.0264 20.2825 14.0264ZM3.53137 21.7501L7.39031 21.7483C9.51814 21.7483 11.2493 20.0172 11.2493 17.8893C11.2493 15.7615 9.51814 14.0304 7.39031 14.0304H3.53137V21.7501Z" fill="#17645D"/>
</svg>
