<svg width="41" height="40" viewBox="0 0 41 40" fill="none" xmlns="http://www.w3.org/2000/svg">
<mask id="mask0_307_8548" style="mask-type:luminance" maskUnits="userSpaceOnUse" x="2" y="3" width="36" height="34">
<path d="M37.8691 3.189H2.86914V36.81H37.8691V3.189Z" fill="white"/>
</mask>
<g mask="url(#mask0_307_8548)">
<g opacity="0.4">
<mask id="mask1_307_8548" style="mask-type:luminance" maskUnits="userSpaceOnUse" x="2" y="3" width="35" height="34">
<path d="M36.4771 3.189H2.86914V36.81H36.4771V3.189Z" fill="white"/>
</mask>
<g mask="url(#mask1_307_8548)">
<path d="M23.211 22.258C22.9346 22.7029 22.5713 23.0875 22.1428 23.3888C21.7142 23.69 21.2293 23.9016 20.717 24.011L20.665 28.338C21.3688 28.2525 22.0591 28.0794 22.72 27.823C23.2709 26.0518 24.1323 24.3926 25.264 22.923L23.211 22.258Z" fill="#17645D"/>
<path d="M25.4299 13.873L22.9219 17.334C23.5375 18.0861 23.8739 19.0281 23.8739 20C23.8739 20.092 23.8149 20.177 23.8669 20.263L26.6859 21.185C27.1229 20.699 27.5859 20.225 28.0719 19.77C28.043 18.6608 27.7946 17.5683 27.3412 16.5557C26.8877 15.543 26.2381 14.6302 25.4299 13.87" fill="#17645D"/>
<path d="M22.4911 30.123C20.3767 30.7132 18.1304 30.6264 16.0678 29.8748C14.0052 29.1232 12.2298 27.7445 10.9907 25.9323C9.75167 24.1201 9.11124 21.9654 9.15934 19.7706C9.20744 17.5759 9.94166 15.4513 11.2589 13.6951C12.5762 11.9389 14.4103 10.6394 16.5039 9.97887C18.5975 9.31835 20.8453 9.33005 22.9319 10.0123C25.0185 10.6946 26.839 12.0132 28.1379 13.783C29.4368 15.5527 30.1489 17.6849 30.1741 19.88C30.9068 20.5741 31.6003 21.3086 32.2511 22.08C32.5138 21.8067 32.7835 21.54 33.0601 21.28L33.9531 20.449L34.8471 21.279C35.3506 21.7514 35.817 22.2619 36.2421 22.806C36.8553 19.1748 36.2578 15.4427 34.5415 12.1845C32.8252 8.92631 30.0853 6.3227 26.7439 4.77466C23.4025 3.22662 19.6448 2.82002 16.0496 3.61746C12.4543 4.41491 9.22096 6.37218 6.84743 9.18784C4.4739 12.0035 3.09184 15.5214 2.91411 19.1997C2.73637 22.878 3.77282 26.5127 5.86383 29.5441C7.95484 32.5755 10.9844 34.8354 14.486 35.9757C17.9876 37.1161 21.767 37.0737 25.2421 35.855C23.626 34.3628 22.6412 32.3094 22.4891 30.115" fill="#17645D"/>
<path d="M18.5642 28.339L18.6172 24.012C18.1068 23.9024 17.6238 23.6906 17.1974 23.3893C16.771 23.0881 16.41 22.7035 16.1362 22.259L12.0732 23.585C12.6711 24.8574 13.5787 25.9593 14.713 26.7899C15.8472 27.6205 17.1708 28.1531 18.5642 28.339Z" fill="#17645D"/>
<path d="M21.7732 19.998C21.7732 19.5827 21.6501 19.1767 21.4193 18.8313C21.1886 18.486 20.8606 18.2168 20.4769 18.0579C20.0932 17.8989 19.6709 17.8573 19.2636 17.9383C18.8562 18.0194 18.482 18.2194 18.1883 18.5131C17.8946 18.8068 17.6946 19.181 17.6136 19.5883C17.5326 19.9957 17.5742 20.4179 17.7331 20.8016C17.892 21.1854 18.1612 21.5133 18.5066 21.7441C18.8519 21.9748 19.2579 22.098 19.6733 22.098C20.2302 22.098 20.7644 21.8768 21.1582 21.4829C21.552 21.0891 21.7732 20.555 21.7732 19.998Z" fill="#17645D"/>
<path d="M15.6162 12.638L18.1232 16.092C19.1189 15.6975 20.2275 15.6975 21.2232 16.092L23.7302 12.638C22.4703 11.945 21.0541 11.5857 19.6162 11.594C18.2163 11.5999 16.8405 11.959 15.6162 12.638Z" fill="#17645D"/>
<path d="M11.2716 19.941C11.269 20.4939 11.3196 21.0458 11.4226 21.589L15.4796 20.263C15.4726 20.178 15.4726 20.092 15.4726 20C15.4726 19.0281 15.8089 18.0861 16.4246 17.334L13.9176 13.873C13.0868 14.6511 12.4236 15.5907 11.9686 16.634C11.5136 17.6774 11.2764 18.8027 11.2716 19.941Z" fill="#17645D"/>
</g>
</g>
<path d="M33.9543 22.25C33.324 22.8367 32.7347 23.4658 32.1903 24.133C31.2615 22.8715 30.2148 21.7012 29.0643 20.638C25.9743 23.504 23.7813 27.244 23.7813 29.497C23.7538 30.4393 23.9157 31.3776 24.2573 32.2562C24.5989 33.1349 25.1134 33.9361 25.7702 34.6124C26.427 35.2886 27.2128 35.8262 28.0811 36.1933C28.9494 36.5605 29.8826 36.7496 30.8253 36.7496C31.7681 36.7496 32.7012 36.5605 33.5695 36.1933C34.4378 35.8262 35.2237 35.2886 35.8805 34.6124C36.5373 33.9361 37.0517 33.1349 37.3934 32.2562C37.735 31.3776 37.8968 30.4393 37.8693 29.497C37.8693 27.823 36.2343 24.365 33.9543 22.25ZM33.3443 32.967C32.6318 33.4625 31.7842 33.7271 30.9163 33.725C30.3822 33.7585 29.8469 33.681 29.3442 33.4973C28.8414 33.3137 28.3822 33.0278 27.9955 32.6578C27.6088 32.2878 27.3029 31.8417 27.0972 31.3476C26.8915 30.8535 26.7904 30.3221 26.8003 29.787C26.8003 28.572 27.5623 27.502 29.0873 25.672C29.3073 25.924 32.1963 29.617 32.1963 29.617L34.0403 27.517C34.1703 27.729 34.2873 27.942 34.3933 28.143C34.8326 28.9384 34.9683 29.8663 34.7752 30.7542C34.5821 31.6422 34.0733 32.4298 33.3433 32.971" fill="#17645D"/>
</g>
</svg>
