<svg width="41" height="40" viewBox="0 0 41 40" fill="none" xmlns="http://www.w3.org/2000/svg">
<path d="M18.1859 21.019C18.1867 20.648 18.2975 20.2855 18.5041 19.9774C18.7108 19.6693 19.0042 19.4293 19.3472 19.2878C19.6902 19.1463 20.0674 19.1097 20.4312 19.1825C20.795 19.2553 21.1291 19.4343 21.3912 19.6968C21.6534 19.9594 21.8318 20.2937 21.904 20.6577C21.9763 21.0216 21.939 21.3988 21.797 21.7415C21.6549 22.0843 21.4145 22.3773 21.1061 22.5835C20.7976 22.7896 20.435 22.8998 20.0639 22.9C19.817 22.9004 19.5723 22.852 19.3441 22.7576C19.1159 22.6631 18.9086 22.5246 18.734 22.3498C18.5595 22.175 18.4213 21.9674 18.3272 21.7391C18.2332 21.5107 18.1851 21.266 18.1859 21.019ZM5.04494 21.019C5.04602 18.711 5.57898 16.4344 6.60245 14.3658C7.62592 12.2972 9.11236 10.4923 10.9464 9.09118C12.7804 7.6901 14.9126 6.73053 17.1775 6.28699C19.4425 5.84344 21.7792 5.92784 24.0062 6.53364C26.2332 7.13944 28.2907 8.25034 30.0188 9.78009C31.747 11.3098 33.0993 13.2173 33.9709 15.3543C34.8424 17.4914 35.2097 19.8006 35.0443 22.1026C34.8789 24.4046 34.1851 26.6375 33.0169 28.628C33.6737 28.8097 34.2423 29.2233 34.6175 29.7922C34.9926 30.3611 35.1488 31.0467 35.0572 31.7219C34.9655 32.3972 34.6322 33.0163 34.1189 33.4646C33.6057 33.9129 32.9474 34.16 32.2659 34.16H7.86094C7.17976 34.1592 6.52192 33.9117 6.00925 33.4631C5.49657 33.0146 5.16379 32.3955 5.07251 31.7205C4.98124 31.0454 5.13766 30.3602 5.51281 29.7916C5.88795 29.223 6.45642 28.8096 7.11294 28.628C5.75493 26.3225 5.04074 23.6947 5.04494 21.019ZM20.0639 11.632C18.0962 11.6362 16.1792 12.257 14.5826 13.4071C12.9859 14.5572 11.7898 16.1787 11.1624 18.0438C10.535 19.9088 10.5079 21.9236 11.0848 23.8049C11.6618 25.6862 12.8138 27.3393 14.3789 28.532C16.0219 29.7544 18.0161 30.4128 20.0639 30.409C21.9346 30.4107 23.7631 29.8536 25.3149 28.809C25.4439 28.721 25.5729 28.627 25.6959 28.533C27.2735 27.3513 28.439 25.7031 29.0274 23.8219C29.6157 21.9408 29.5969 19.9221 28.9738 18.0522C28.3506 16.1823 27.1547 14.556 25.5555 13.4038C23.9563 12.2516 22.035 11.6311 20.0639 11.632Z" fill="#17645D"/>
<path opacity="0.4" d="M10.6768 21.019C10.6768 19.1624 11.2273 17.3475 12.2588 15.8039C13.2902 14.2602 14.7563 13.057 16.4715 12.3465C18.1868 11.6361 20.0742 11.4502 21.8951 11.8124C23.716 12.1746 25.3886 13.0686 26.7014 14.3814C28.0142 15.6942 28.9082 17.3668 29.2704 19.1877C29.6326 21.0086 29.4467 22.896 28.7362 24.6113C28.0257 26.3265 26.8226 27.7926 25.2789 28.824C23.7352 29.8555 21.9203 30.406 20.0638 30.406C18.8309 30.4064 17.6101 30.1639 16.471 29.6923C15.332 29.2207 14.297 28.5292 13.4253 27.6575C12.5535 26.7858 11.8621 25.7508 11.3905 24.6117C10.9189 23.4727 10.6764 22.2518 10.6768 21.019ZM16.9018 23.037L13.2708 24.222C13.8046 25.3589 14.6154 26.3436 15.6288 27.0857C16.6422 27.8277 17.8257 28.3034 19.0708 28.469L19.1178 24.603C18.6615 24.5052 18.2297 24.3161 17.8485 24.0469C17.4673 23.7778 17.1446 23.4342 16.8998 23.037H16.9018ZM20.9968 24.656L20.9498 28.469C22.2135 28.3192 23.4186 27.8509 24.4519 27.1081C25.4853 26.3653 26.3131 25.3722 26.8578 24.222L23.2268 23.037C22.7156 23.8394 21.918 24.418 20.9968 24.656ZM23.8128 21.256L27.4388 22.441C27.5308 21.9555 27.5761 21.4622 27.5738 20.968C27.5694 19.9511 27.3575 18.9458 26.951 18.0136C26.5445 17.0815 25.952 16.2421 25.2098 15.547L22.9678 18.632C23.5091 19.2883 23.8095 20.1102 23.8188 20.961C23.8188 21.096 23.7658 21.172 23.8128 21.248V21.256ZM21.4488 17.531L23.6898 14.445C22.5793 13.8332 21.3321 13.5123 20.0643 13.5123C18.7964 13.5123 17.5492 13.8332 16.4388 14.445L18.6768 17.532C19.5662 17.18 20.5563 17.18 21.4458 17.532L21.4488 17.531ZM17.1598 18.632L14.9188 15.54C14.1765 16.2351 13.584 17.0745 13.1775 18.0066C12.771 18.9388 12.5591 19.9441 12.5548 20.961C12.5525 21.4552 12.5977 21.9485 12.6898 22.434L16.3158 21.249C16.3098 21.173 16.2568 21.096 16.2568 21.014C16.2743 20.1402 16.5921 19.2991 17.1568 18.632H17.1598ZM20.0598 19.132C19.6885 19.132 19.3256 19.2421 19.017 19.4483C18.7083 19.6546 18.4677 19.9477 18.3256 20.2907C18.1836 20.6337 18.1464 21.0111 18.2188 21.3752C18.2913 21.7393 18.47 22.0737 18.7325 22.3362C18.995 22.5987 19.3295 22.7775 19.6936 22.8499C20.0577 22.9224 20.4351 22.8852 20.7781 22.7431C21.121 22.6011 21.4142 22.3605 21.6204 22.0518C21.8267 21.7431 21.9368 21.3802 21.9368 21.009C21.9349 20.5133 21.7368 20.0385 21.3858 19.6884C21.0348 19.3383 20.5595 19.1415 20.0638 19.141L20.0598 19.132Z" fill="#17645D"/>
</svg>
