<svg width="20" height="20" viewBox="0 0 20 20" fill="none" xmlns="http://www.w3.org/2000/svg">
<path d="M9.99899 3.422C9.54166 3.42183 9.08556 3.46909 8.63799 3.563V0.890999C9.99244 0.689659 11.3747 0.792314 12.6846 1.19152C13.9945 1.59072 15.199 2.27646 16.211 3.199L17.417 1.99C17.5089 1.89794 17.626 1.83523 17.7536 1.80981C17.8811 1.78439 18.0134 1.7974 18.1335 1.8472C18.2537 1.89699 18.3564 1.98133 18.4285 2.08954C18.5007 2.19774 18.5392 2.32493 18.539 2.455V6.788C18.5385 6.96235 18.469 7.12941 18.3457 7.2527C18.2224 7.37598 18.0553 7.44547 17.881 7.446H13.551C13.4211 7.4457 13.2943 7.40698 13.1864 7.33471C13.0785 7.26245 12.9944 7.15988 12.9447 7.03992C12.895 6.91996 12.8818 6.78797 12.907 6.66058C12.9321 6.53318 12.9944 6.41607 13.086 6.324L14.349 5.061C13.1475 4.00225 11.6004 3.41932 9.99899 3.422ZM6.91698 13.811L5.72498 14.999C6.91498 16.0209 8.43246 16.5812 10.001 16.578C10.4271 16.5783 10.8523 16.5384 11.271 16.459V19.123C10.8501 19.1808 10.4258 19.2096 10.001 19.209C7.73763 19.195 5.55613 18.3608 3.86098 16.861L2.58199 18.14C2.48996 18.2319 2.37277 18.2945 2.2452 18.3198C2.11763 18.3452 1.98542 18.3321 1.86525 18.2824C1.74509 18.2326 1.64236 18.1484 1.57005 18.0403C1.49774 17.9322 1.45909 17.8051 1.45898 17.675V13.346C1.45925 13.1716 1.52866 13.0044 1.652 12.881C1.77534 12.7577 1.94255 12.6883 2.11699 12.688H6.44698C6.57562 12.6912 6.70059 12.7315 6.80682 12.8042C6.91305 12.8768 6.99601 12.9786 7.04568 13.0973C7.09536 13.216 7.10965 13.3465 7.08681 13.4732C7.06398 13.5998 7.005 13.7171 6.91698 13.811Z" fill="#17645D"/>
<path opacity="0.4" d="M6.72211 1.525C6.89655 1.52527 7.06376 1.59468 7.1871 1.71802C7.31044 1.84136 7.37985 2.00857 7.38012 2.183V6.513C7.38013 6.64298 7.3417 6.77007 7.26966 6.87827C7.19762 6.98646 7.0952 7.07094 6.97527 7.12107C6.85534 7.1712 6.72326 7.18475 6.59566 7.16C6.46805 7.13525 6.35061 7.07333 6.25811 6.982L5.00011 5.724C3.98054 6.91519 3.42112 8.43205 3.42311 10C3.42293 10.4487 3.46782 10.8963 3.55711 11.336H0.887115C0.821596 10.8937 0.788177 10.4472 0.787117 10C0.784234 7.73466 1.61951 5.54835 3.13211 3.862L1.92411 2.645C1.83421 2.55553 1.77218 2.44192 1.74552 2.31792C1.71886 2.19392 1.72872 2.06485 1.7739 1.94633C1.81908 1.82782 1.89765 1.72495 2.0001 1.65017C2.10254 1.57539 2.22447 1.53191 2.35112 1.525H6.72211ZM13.7441 13.153L14.9371 14.345C15.9984 13.1466 16.5821 11.5998 16.5771 9.999C16.5792 9.56247 16.5366 9.12688 16.4501 8.699H19.1181C19.1796 9.12958 19.2097 9.56406 19.2081 9.999C19.2105 12.2974 18.3526 14.5134 16.8031 16.211L18.0781 17.486C18.1697 17.5781 18.232 17.6952 18.2571 17.8226C18.2823 17.95 18.2691 18.082 18.2194 18.2019C18.1697 18.3219 18.0856 18.4245 17.9777 18.4967C17.8698 18.569 17.743 18.6077 17.6131 18.608H13.2801C13.1058 18.6075 12.9387 18.538 12.8154 18.4147C12.6921 18.2914 12.6226 18.1244 12.6221 17.95V13.618C12.6224 13.4881 12.6611 13.3613 12.7334 13.2534C12.8057 13.1455 12.9082 13.0614 13.0282 13.0117C13.1482 12.962 13.2801 12.9489 13.4075 12.974C13.5349 12.9991 13.652 13.0614 13.7441 13.153Z" fill="#17645D"/>
</svg>
