<svg width="40" height="28" viewBox="0 0 40 28" fill="none" xmlns="http://www.w3.org/2000/svg">
<path d="M30.9776 22.72C30.8872 22.9027 30.7477 23.0567 30.5749 23.1648C30.402 23.2728 30.2025 23.3307 29.9986 23.332H9.99861C9.79025 23.3297 9.58678 23.2686 9.41162 23.1557C9.23647 23.0429 9.09677 22.8828 9.00861 22.694C8.91552 22.5012 8.87501 22.2872 8.89116 22.0736C8.90732 21.8601 8.97958 21.6546 9.10062 21.478L13.9616 14.478C14.0536 14.3384 14.1771 14.2224 14.3221 14.1392C14.4672 14.056 14.6297 14.008 14.7966 13.999C14.9742 14.0003 15.1487 14.0445 15.3055 14.1279C15.4622 14.2114 15.5964 14.3315 15.6966 14.478L17.2486 16.714L21.6056 9.852C21.7109 9.68861 21.8564 9.55506 22.0282 9.46417C22.2 9.37327 22.3923 9.3281 22.5866 9.333C22.772 9.3348 22.9539 9.38342 23.1154 9.47433C23.2769 9.56524 23.4129 9.6955 23.5106 9.85301L30.9206 21.52C31.0331 21.698 31.0975 21.9021 31.1075 22.1125C31.1175 22.3228 31.0727 22.5321 30.9776 22.72Z" fill="#949494" fill-opacity="0.5"/>
<path opacity="0.4" d="M36.666 0H3.33201C2.42611 0.0227973 1.5663 0.404186 0.941378 1.06042C0.316459 1.71665 -0.0224747 2.59407 -0.000990667 3.5V24.5C-0.0224747 25.4059 0.316459 26.2834 0.941378 26.9396C1.5663 27.5958 2.42611 27.9772 3.33201 28H36.666C37.5719 27.9772 38.4317 27.5958 39.0566 26.9396C39.6816 26.2834 40.0205 25.4059 39.999 24.5V3.5C40.0205 2.59407 39.6816 1.71665 39.0566 1.06042C38.4317 0.404186 37.5719 0.0227973 36.666 0ZM12.159 7C12.6253 6.97722 13.0878 7.09469 13.4867 7.33727C13.8856 7.57984 14.2027 7.93639 14.397 8.36091C14.5914 8.78543 14.654 9.25844 14.5769 9.71892C14.4999 10.1794 14.2866 10.6062 13.9646 10.9443C13.6426 11.2824 13.2266 11.5162 12.7705 11.6156C12.3143 11.7151 11.8388 11.6755 11.4053 11.5021C10.9718 11.3287 10.6003 11.0293 10.3385 10.6427C10.0768 10.2561 9.93697 9.79988 9.93701 9.333C9.93311 8.73206 10.1625 8.15306 10.577 7.7179C10.9915 7.28273 11.5586 7.02537 12.159 7ZM30.978 22.721C30.8876 22.9037 30.7481 23.0577 30.5753 23.1658C30.4024 23.2738 30.2029 23.3317 29.999 23.333H9.99901C9.79065 23.3307 9.58717 23.2696 9.41202 23.1567C9.23687 23.0439 9.09717 22.8838 9.00901 22.695C8.91563 22.5023 8.87478 22.2884 8.89058 22.0749C8.90638 21.8614 8.97828 21.6558 9.09901 21.479L13.96 14.479C14.0524 14.3389 14.1766 14.2225 14.3223 14.1393C14.4681 14.0561 14.6314 14.0084 14.799 14C14.9765 14.0013 15.1511 14.0455 15.3079 14.1289C15.4646 14.2123 15.5988 14.3325 15.699 14.479L17.251 16.715L21.608 9.853C21.7136 9.68895 21.8597 9.55497 22.0323 9.46404C22.2049 9.3731 22.398 9.32831 22.593 9.334C22.7784 9.3358 22.9603 9.38442 23.1218 9.47533C23.2833 9.56624 23.4193 9.69649 23.517 9.854L30.927 21.521C31.0386 21.6995 31.1019 21.9039 31.1109 22.1143C31.1198 22.3246 31.074 22.5337 30.978 22.721Z" fill="#949494" fill-opacity="0.5"/>
</svg>
