<svg width="40" height="41" viewBox="0 0 40 41" fill="none" xmlns="http://www.w3.org/2000/svg">
<path d="M24.1669 4.08325V12.4166H32.5003L24.1669 4.08325ZM25.2086 24.3966H21.5619V20.6916C21.54 20.2903 21.3666 19.9122 21.0767 19.6338C20.7869 19.3554 20.4021 19.1973 20.0003 19.1916C19.5954 19.1875 19.2051 19.3423 18.9131 19.6227C18.6212 19.9032 18.4508 20.2869 18.4386 20.6916V24.3966H14.7286C14.3238 24.4092 13.94 24.5799 13.6596 24.8722C13.3792 25.1644 13.2245 25.5549 13.2286 25.9599C13.2286 26.3577 13.3866 26.7393 13.6679 27.0206C13.9492 27.3019 14.3308 27.4599 14.7286 27.4599H18.4336V31.1066C18.4271 31.3164 18.4627 31.5254 18.5383 31.7212C18.6138 31.917 18.7278 32.0958 18.8735 32.2469C19.0192 32.398 19.1936 32.5184 19.3866 32.6011C19.5795 32.6838 19.787 32.727 19.9969 32.7282C20.1939 32.7282 20.389 32.6894 20.571 32.6141C20.7529 32.5387 20.9183 32.4282 21.0576 32.2889C21.1969 32.1496 21.3074 31.9843 21.3827 31.8023C21.4581 31.6203 21.4969 31.4252 21.4969 31.2282V27.4616H25.2019C25.6067 27.4648 25.9967 27.3098 26.2887 27.0296C26.5808 26.7494 26.7518 26.3661 26.7653 25.9616C26.7568 25.5506 26.5904 25.1587 26.3005 24.8672C26.0106 24.5758 25.6195 24.4072 25.2086 24.3966Z" fill="#17645D"/>
<path opacity="0.4" d="M24.1667 12.4166V4.08325H10.625C9.7962 4.08325 9.00134 4.41249 8.41529 4.99854C7.82924 5.58459 7.5 6.37945 7.5 7.20825L7.5 34.2916C7.5 35.1204 7.82924 35.9152 8.41529 36.5013C9.00134 37.0873 9.7962 37.4166 10.625 37.4166H29.375C30.2038 37.4166 30.9986 37.0873 31.5847 36.5013C32.1708 35.9152 32.5 35.1204 32.5 34.2916V12.4166H24.1667ZM25.2083 27.4616H21.5633V31.1082C21.5666 31.529 21.4049 31.9343 21.1131 32.2374C20.8212 32.5405 20.4223 32.7173 20.0017 32.7299C19.5971 32.7332 19.2073 32.5781 18.9155 32.2978C18.6237 32.0176 18.453 31.6343 18.44 31.2299V27.4616H14.7333C14.3355 27.4616 13.954 27.3035 13.6727 27.0222C13.3914 26.7409 13.2333 26.3594 13.2333 25.9616C13.2333 25.5638 13.3914 25.1822 13.6727 24.9009C13.954 24.6196 14.3355 24.4616 14.7333 24.4616H18.4383V20.6916C18.4505 20.2866 18.6211 19.9026 18.9135 19.6221C19.2058 19.3416 19.5965 19.187 20.0017 19.1916C20.3995 19.1916 20.781 19.3496 21.0623 19.6309C21.3436 19.9122 21.5017 20.2938 21.5017 20.6916V24.3966H25.2067C25.6114 24.3933 26.0014 24.5483 26.2935 24.8286C26.5855 25.1088 26.7565 25.492 26.77 25.8966C26.7615 26.3084 26.5944 26.7011 26.3034 26.9926C26.0124 27.2842 25.6201 27.4522 25.2083 27.4616Z" fill="#17645D"/>
</svg>
