<svg width="41" height="41" viewBox="0 0 41 41" fill="none" xmlns="http://www.w3.org/2000/svg">
<path fill-rule="evenodd" clip-rule="evenodd" d="M16.7963 35.5001H24.203C29.4047 35.5001 32.0063 35.5001 33.8747 34.2751C34.6808 33.7467 35.3751 33.0649 35.918 32.2684C37.1663 30.4351 37.1663 27.8801 37.1663 22.7734C37.1663 17.6651 37.1663 15.1117 35.918 13.2784C35.3752 12.4819 34.6809 11.8001 33.8747 11.2717C32.6747 10.4834 31.1713 10.2017 28.8697 10.1017C27.7713 10.1017 26.8263 9.28508 26.6113 8.22674C26.447 7.45153 26.0201 6.7568 25.4028 6.26C24.7854 5.76319 24.0154 5.49476 23.223 5.50008H17.7763C16.1297 5.50008 14.7113 6.64174 14.388 8.22674C14.173 9.28508 13.228 10.1017 12.1297 10.1017C9.82967 10.2017 8.32634 10.4851 7.12467 11.2717C6.31904 11.8002 5.6253 12.482 5.08301 13.2784C3.83301 15.1117 3.83301 17.6651 3.83301 22.7734C3.83301 27.8801 3.83301 30.4334 5.08134 32.2684C5.62134 33.0617 6.31467 33.7434 7.12467 34.2751C8.99301 35.5001 11.5947 35.5001 16.7963 35.5001ZM20.4997 15.9551C16.6647 15.9551 13.5547 19.0067 13.5547 22.7717C13.5547 26.5384 16.6647 29.5917 20.4997 29.5917C24.3347 29.5917 27.4447 26.5384 27.4447 22.7734C27.4447 19.0067 24.3347 15.9551 20.4997 15.9551ZM20.4997 18.6817C18.1997 18.6817 16.333 20.5134 16.333 22.7734C16.333 25.0317 18.1997 26.8634 20.4997 26.8634C22.7997 26.8634 24.6663 25.0317 24.6663 22.7734C24.6663 20.5134 22.7997 18.6817 20.4997 18.6817ZM28.3697 17.3184C28.3697 16.5651 28.9913 15.9551 29.7597 15.9551H31.6097C32.3763 15.9551 32.9997 16.5651 32.9997 17.3184C32.9962 17.6832 32.848 18.0318 32.5876 18.2874C32.3273 18.543 31.9762 18.6849 31.6113 18.6817H29.7597C29.5789 18.6835 29.3995 18.6496 29.2318 18.5821C29.0641 18.5145 28.9114 18.4146 28.7823 18.288C28.6532 18.1614 28.5503 18.0106 28.4795 17.8442C28.4088 17.6779 28.3714 17.4992 28.3697 17.3184Z" fill="#17645D"/>
<circle cx="20.4163" cy="22.5833" r="4.58333" fill="#9CBCB9"/>
</svg>
