<svg width="25" height="22" viewBox="0 0 25 22" fill="none" xmlns="http://www.w3.org/2000/svg">
<path d="M2.35672 8.37342L4.00625 3.59764C4.63766 1.76781 6.34062 0.542862 8.25312 0.542862H16.7469C18.6594 0.542862 20.3609 1.76781 20.9938 3.59764L22.6437 8.37342C23.7312 8.82957 24.5 9.91768 24.5 11.1863V18.0286H0.5V11.1863C0.5 9.91768 1.26688 8.82957 2.35672 8.37342ZM5.61406 8.14535H19.3859L18.1625 4.60069C17.9516 3.99249 17.3844 3.58386 16.7469 3.58386H8.25312C7.61562 3.58386 7.04844 3.99249 6.8375 4.60069L5.61406 8.14535ZM5 11.1863C4.17172 11.1863 3.5 11.8658 3.5 12.7068C3.5 13.5479 4.17172 14.2273 5 14.2273C5.82969 14.2273 6.5 13.5479 6.5 12.7068C6.5 11.8658 5.82969 11.1863 5 11.1863ZM20 14.2273C20.8297 14.2273 21.5 13.5479 21.5 12.7068C21.5 11.8658 20.8297 11.1863 20 11.1863C19.1703 11.1863 18.5 11.8658 18.5 12.7068C18.5 13.5479 19.1703 14.2273 20 14.2273Z" fill="#17645D"/>
<path opacity="0.4" d="M16.7469 3.62859C17.3844 3.62859 17.9516 4.02787 18.1625 4.62216L19.3859 8.08573H5.61406L6.8375 4.62216C7.04844 4.02787 7.61562 3.62859 8.25312 3.62859H16.7469ZM0.5 17.7429H5V19.9714C5 20.7932 4.32828 21.4572 3.5 21.4572H2C1.17172 21.4572 0.5 20.7932 0.5 19.9714V17.7429ZM24.5 19.9714C24.5 20.7932 23.8297 21.4572 23 21.4572H21.5C20.6703 21.4572 20 20.7932 20 19.9714V17.7429H24.5V19.9714Z" fill="#17645D"/>
</svg>
