<svg width="20" height="20" viewBox="0 0 20 20" fill="none" xmlns="http://www.w3.org/2000/svg">
<path d="M15.2662 1.02094C15.6641 0.623283 16.2036 0.399902 16.7662 0.399902C17.3287 0.399902 17.8682 0.623283 18.2662 1.02094L18.9752 1.73094C19.1723 1.92784 19.3287 2.16166 19.4354 2.41904C19.5421 2.67642 19.597 2.95232 19.597 3.23094C19.597 3.50957 19.5421 3.78546 19.4354 4.04284C19.3287 4.30022 19.1723 4.53405 18.9752 4.73094L17.8422 5.87294L14.1291 2.16094L15.2662 1.02094ZM16.9822 6.72894L10.6421 13.0679C10.4098 13.3025 10.1255 13.4789 9.81216 13.5829L6.44215 14.7049C6.28233 14.7509 6.11312 14.7532 5.95211 14.7116C5.79111 14.67 5.64418 14.5861 5.52659 14.4685C5.40901 14.3509 5.32505 14.204 5.28347 14.043C5.24189 13.882 5.24421 13.7128 5.29016 13.5529L6.41215 10.1879C6.51619 9.87464 6.69263 9.59028 6.92715 9.35794L13.2662 3.01694L16.9822 6.72894Z" fill="#17645D"/>
<path opacity="0.4" d="M0.398499 6.26279C0.395712 5.7844 0.487884 5.3102 0.669673 4.86768C0.851463 4.42516 1.11926 4.02312 1.45754 3.68484C1.79582 3.34655 2.19787 3.07875 2.64039 2.89697C3.08291 2.71518 3.5571 2.62301 4.0355 2.62579H7.6735C7.99507 2.62579 8.30348 2.75354 8.53087 2.98093C8.75825 3.20831 8.886 3.51672 8.886 3.8383C8.886 4.15987 8.75825 4.46828 8.53087 4.69566C8.30348 4.92305 7.99507 5.0508 7.6735 5.0508H4.0355C3.71406 5.0508 3.40578 5.17848 3.17849 5.40578C2.95119 5.63307 2.8235 5.94135 2.8235 6.26279V15.9628C2.82337 16.122 2.85462 16.2797 2.91547 16.4269C2.97632 16.5741 3.06557 16.7078 3.17813 16.8204C3.29069 16.9331 3.42434 17.0225 3.57146 17.0834C3.71857 17.1444 3.87625 17.1758 4.0355 17.1758H13.7355C13.8947 17.1759 14.0524 17.1447 14.1995 17.0838C14.3466 17.0229 14.4802 16.9337 14.5928 16.8211C14.7054 16.7085 14.7946 16.5749 14.8555 16.4278C14.9164 16.2807 14.9476 16.123 14.9475 15.9638V12.3258C14.9475 12.0042 15.0752 11.6958 15.3026 11.4684C15.53 11.241 15.8384 11.1133 16.16 11.1133C16.4816 11.1133 16.79 11.241 17.0174 11.4684C17.2448 11.6958 17.3725 12.0042 17.3725 12.3258V15.9628C17.3722 16.9273 16.989 17.8522 16.307 18.5342C15.6249 19.2163 14.7 19.5995 13.7355 19.5998H4.0355C3.07099 19.5995 2.14606 19.2163 1.46404 18.5342C0.782032 17.8522 0.398764 16.9273 0.398499 15.9628V6.26279Z" fill="#17645D"/>
</svg>
