<svg width="40" height="40" viewBox="0 0 40 40" fill="none" xmlns="http://www.w3.org/2000/svg">
<path d="M20 40C31.0457 40 40 31.0457 40 20C40 8.9543 31.0457 0 20 0C8.9543 0 0 8.9543 0 20C0 31.0457 8.9543 40 20 40Z" fill="#DCE6E3"/>
<path d="M24.8887 13.8767V12.4444C24.8887 11.7695 25.4349 11.2222 26.1109 11.2222H27.3331C28.0091 11.2222 28.5553 11.7695 28.5553 12.4444V17.085L30.5834 18.8572C31.0914 19.304 31.141 20.0756 30.698 20.5835C30.2511 21.0915 29.4796 21.1412 28.9716 20.6981L19.9999 12.8462L11.027 20.6981C10.519 21.1412 9.74708 21.0915 9.30238 20.5835C8.85792 20.0756 8.90941 19.304 9.41746 18.8572L19.194 10.3024C19.6217 9.8992 20.3436 9.8992 20.8058 10.3024L24.8887 13.8767Z" fill="#17645D"/>
<path opacity="0.4" d="M20 12.8462L28.5593 20.3353L28.5745 28.0237C28.5784 28.8678 27.8947 29.5553 27.0468 29.5553H23.9722C23.1281 29.5553 22.4444 28.8716 22.4444 28.0275V24.655C22.4444 23.979 21.8982 23.4328 21.2222 23.4328H18.7778C18.1018 23.4328 17.5556 23.979 17.5556 24.655V28.0275C17.5556 28.8716 16.8719 29.5553 16.0278 29.5553H12.9761C12.1317 29.5553 11.448 28.8716 11.4476 28.0275L11.4453 20.3314L20 12.8462Z" fill="#17645D"/>
</svg>
