<svg width="18" height="18" viewBox="0 0 18 18" fill="none" xmlns="http://www.w3.org/2000/svg">
<g clip-path="url(#clip0_307_5246)">
<path d="M7.58516 14.3955C7.43261 14.3955 7.28348 14.3502 7.15664 14.2655C7.0298 14.1807 6.93094 14.0603 6.87256 13.9193C6.81418 13.7784 6.7989 13.6233 6.82866 13.4737C6.85843 13.3241 6.93189 13.1866 7.03976 13.0788L11.124 8.99547L7.03976 4.91217C6.89511 4.76752 6.81385 4.57133 6.81385 4.36677C6.81385 4.1622 6.89511 3.96602 7.03976 3.82137C7.18441 3.67672 7.3806 3.59546 7.58516 3.59546C7.78973 3.59546 7.98591 3.67672 8.13056 3.82137L12.7593 8.45547C12.8309 8.52709 12.8877 8.61212 12.9265 8.7057C12.9652 8.79928 12.9852 8.89958 12.9852 9.00087C12.9852 9.10216 12.9652 9.20246 12.9265 9.29604C12.8877 9.38962 12.8309 9.47465 12.7593 9.54627L8.13056 14.175C8.05867 14.2459 7.97348 14.3018 7.87988 14.3397C7.78628 14.3775 7.68612 14.3965 7.58516 14.3955Z" fill="#17645D"/>
</g>
<defs>
<clipPath id="clip0_307_5246">
<rect width="18" height="18" fill="white"/>
</clipPath>
</defs>
</svg>
