<svg width="24" height="25" viewBox="0 0 24 25" fill="none" xmlns="http://www.w3.org/2000/svg">
<path d="M12.0195 4.375C9.08984 4.375 6.43359 5.9375 4.94922 8.4375C3.50391 10.9766 3.50391 14.0625 4.94922 16.5625C6.43359 19.1016 9.08984 20.625 12.0195 20.625C14.9102 20.625 17.5664 19.1016 19.0508 16.5625C20.4961 14.0625 20.4961 10.9766 19.0508 8.4375C17.5664 5.9375 14.9102 4.375 12.0195 4.375ZM12.0195 22.5C8.42578 22.5 5.14453 20.625 3.34766 17.5C1.55078 14.4141 1.55078 10.625 3.34766 7.5C5.14453 4.41406 8.42578 2.5 12.0195 2.5C15.5742 2.5 18.8555 4.41406 20.6523 7.5C22.4492 10.625 22.4492 14.4141 20.6523 17.5C18.8555 20.625 15.5742 22.5 12.0195 22.5ZM13.2695 6.875C13.2695 7.57812 12.6836 8.125 12.0195 8.125C11.3164 8.125 10.7695 7.57812 10.7695 6.875C10.7695 6.21094 11.3164 5.625 12.0195 5.625C12.6836 5.625 13.2695 6.21094 13.2695 6.875ZM12.0195 18.4375V18.4766C10.8086 18.4766 9.83203 17.4609 9.83203 16.2891C9.83203 16.1719 9.83203 16.0547 9.83203 15.9375L5.53516 12.9688C5.10547 12.6953 4.98828 12.1094 5.30078 11.6797C5.57422 11.25 6.16016 11.1328 6.58984 11.4453L10.8867 14.375C11.2383 14.1797 11.5898 14.0625 12.0195 14.0625C13.1914 14.0625 14.207 15.0781 14.207 16.25C14.207 17.4609 13.1914 18.4375 12.0195 18.4375ZM9.51953 8.75C9.51953 9.45312 8.93359 10 8.26953 10C7.56641 10 7.01953 9.45312 7.01953 8.75C7.01953 8.08594 7.56641 7.5 8.26953 7.5C8.93359 7.5 9.51953 8.08594 9.51953 8.75ZM17.6445 13.75C16.9414 13.75 16.3945 13.2031 16.3945 12.5C16.3945 11.8359 16.9414 11.25 17.6445 11.25C18.3086 11.25 18.8945 11.8359 18.8945 12.5C18.8945 13.2031 18.3086 13.75 17.6445 13.75ZM17.0195 8.75C17.0195 9.45312 16.4336 10 15.7695 10C15.0664 10 14.5195 9.45312 14.5195 8.75C14.5195 8.08594 15.0664 7.5 15.7695 7.5C16.4336 7.5 17.0195 8.08594 17.0195 8.75Z" fill="#17645D"/>
</svg>
