<svg width="18" height="20" viewBox="0 0 18 20" fill="none" xmlns="http://www.w3.org/2000/svg">
<g clip-path="url(#clip0_307_5237)">
<path d="M10.7475 7.99874H8.96851V8.84774C8.97044 8.95661 8.95041 9.06476 8.90964 9.16572C8.86886 9.26669 8.80816 9.35841 8.73117 9.4354C8.65417 9.5124 8.56245 9.5731 8.46149 9.61387C8.36052 9.65465 8.25237 9.67467 8.1435 9.67274C7.92596 9.6687 7.71846 9.58049 7.56461 9.42664C7.41076 9.27278 7.32255 9.06528 7.31851 8.84774V7.99874H6.4935V8.84774C6.49543 8.95661 6.47541 9.06476 6.43464 9.16572C6.39386 9.26669 6.33316 9.35841 6.25616 9.4354C6.17917 9.5124 6.08745 9.5731 5.98648 9.61387C5.88552 9.65465 5.77737 9.67467 5.6685 9.67274C5.44838 9.66355 5.24016 9.57032 5.08669 9.41225C4.93323 9.25418 4.84619 9.04329 4.84351 8.82299V7.17299C4.85133 6.95668 4.94076 6.75135 5.09381 6.59829C5.24687 6.44524 5.45219 6.35581 5.6685 6.34799H10.752C10.953 5.56252 11.4337 4.87741 12.104 4.42126C12.7743 3.96511 13.588 3.76929 14.3924 3.87056C15.1968 3.97183 15.9366 4.36323 16.4729 4.97128C17.0092 5.57933 17.3051 6.36222 17.3051 7.17299C17.3051 7.98376 17.0092 8.76665 16.4729 9.3747C15.9366 9.98275 15.1968 10.3742 14.3924 10.4754C13.588 10.5767 12.7743 10.3809 12.104 9.92472C11.4337 9.46857 10.953 8.78346 10.752 7.99799L10.7475 7.99874ZM13.926 8.84849C14.143 8.84849 14.3578 8.80575 14.5583 8.72272C14.7588 8.63969 14.9409 8.51798 15.0943 8.36456C15.2477 8.21113 15.3695 8.02899 15.4525 7.82853C15.5355 7.62807 15.5783 7.41322 15.5783 7.19624C15.5783 6.97926 15.5355 6.76441 15.4525 6.56395C15.3695 6.36349 15.2477 6.18135 15.0943 6.02792C14.9409 5.8745 14.7588 5.75279 14.5583 5.66976C14.3578 5.58673 14.143 5.54399 13.926 5.54399C13.4878 5.54399 13.0675 5.71807 12.7577 6.02792C12.4478 6.33778 12.2738 6.75804 12.2738 7.19624C12.2738 7.63444 12.4478 8.0547 12.7577 8.36456C13.0675 8.67441 13.4878 8.84849 13.926 8.84849Z" fill="#17645D"/>
<path opacity="0.4" d="M7.21274 12.9749H8.99174V12.15C8.99174 11.9312 9.07866 11.7213 9.23337 11.5666C9.38809 11.4119 9.59793 11.325 9.81674 11.325C10.0355 11.325 10.2454 11.4119 10.4001 11.5666C10.5548 11.7213 10.6417 11.9312 10.6417 12.15V12.9749H11.4667V12.1252C11.467 12.0179 11.4887 11.9118 11.5305 11.8131C11.5723 11.7143 11.6335 11.6249 11.7103 11.5501C11.7872 11.4753 11.8782 11.4165 11.978 11.3774C12.0779 11.3382 12.1845 11.3194 12.2917 11.322C12.4001 11.322 12.5074 11.3433 12.6075 11.3847C12.7075 11.4262 12.7985 11.487 12.8751 11.5636C12.9517 11.6402 13.0125 11.7311 13.0539 11.8312C13.0954 11.9313 13.1167 12.0386 13.1167 12.147V13.7969C13.1167 13.9053 13.0954 14.0126 13.0539 14.1127C13.0125 14.2128 12.9517 14.3037 12.8751 14.3803C12.7985 14.4569 12.7075 14.5177 12.6075 14.5591C12.5074 14.6006 12.4001 14.622 12.2917 14.622H7.21274C7.03668 15.3309 6.6277 15.9602 6.05136 16.4089C5.47502 16.8577 4.76469 17.1 4.03424 17.0969C3.15783 17.0969 2.31732 16.7488 1.6976 16.1291C1.07789 15.5094 0.729736 14.6689 0.729736 13.7925C0.729736 12.9161 1.07789 12.0755 1.6976 11.4558C2.31732 10.8361 3.15783 10.4879 4.03424 10.4879C4.76469 10.4849 5.47502 10.7272 6.05136 11.176C6.6277 11.6247 7.03668 12.254 7.21274 12.9629V12.9749ZM4.03424 12.15C3.7079 12.15 3.38889 12.2467 3.11755 12.428C2.8462 12.6093 2.63472 12.867 2.50984 13.1685C2.38495 13.47 2.35228 13.8018 2.41594 14.1218C2.47961 14.4419 2.63675 14.7359 2.86751 14.9667C3.09827 15.1974 3.39227 15.3546 3.71234 15.4183C4.03241 15.4819 4.36417 15.4492 4.66566 15.3243C4.96716 15.1995 5.22486 14.988 5.40616 14.7166C5.58747 14.4453 5.68424 14.1263 5.68424 13.7999C5.68424 13.3623 5.5104 12.9427 5.20096 12.6332C4.89153 12.3238 4.47184 12.15 4.03424 12.15Z" fill="#17645D"/>
</g>
<defs>
<clipPath id="clip0_307_5237">
<rect width="18" height="18" fill="white" transform="translate(0 1.5)"/>
</clipPath>
</defs>
</svg>
