<svg width="152" height="22" viewBox="0 0 152 22" fill="none" xmlns="http://www.w3.org/2000/svg">
<g id="Logo Larry">
<path d="M101.119 14.5245H96.9121C97.9585 13.937 98.8281 13.0801 99.4304 12.0429C100.033 11.0058 100.346 9.82637 100.337 8.62739L100.317 4.69098C100.308 3.52466 99.8392 2.40889 99.0127 1.58507C98.1861 0.761238 97.0681 0.295588 95.9005 0.288851H80.775C80.1915 0.292342 79.6144 0.410609 79.0766 0.636899C78.5389 0.86319 78.051 1.19307 77.6408 1.60771C77.2307 2.02235 76.9064 2.51362 76.6863 3.05348C76.4663 3.59333 76.3548 4.1712 76.3583 4.75409V13.5379C76.811 13.6984 77.2028 13.9952 77.4796 14.3875C77.7564 14.7797 77.9046 15.248 77.9038 15.7279V16.1883C77.9057 17.2762 77.6525 18.3495 77.1644 19.3221C77.4981 19.7394 77.9215 20.0764 78.4033 20.3081C78.8851 20.5398 79.4128 20.6602 79.9475 20.6606C80.4217 20.6578 80.8906 20.5618 81.3276 20.3779C81.7646 20.1941 82.161 19.9261 82.4943 19.5892C82.8276 19.2523 83.0912 18.8531 83.2701 18.4144C83.4489 17.9758 83.5395 17.5062 83.5367 17.0326V15.3581H89.3591L91.2863 18.7844C91.7577 19.7465 92.4893 20.5576 93.3984 21.1257C94.3074 21.6939 95.3576 21.9964 96.4299 21.9991H96.5598C98.0935 21.9899 99.5607 21.3726 100.639 20.2829C101.717 19.1931 102.317 17.7203 102.308 16.1883V15.7279C102.309 15.5708 102.279 15.415 102.22 15.2695C102.161 15.124 102.073 14.9916 101.963 14.8799C101.852 14.7681 101.721 14.6792 101.576 14.6182C101.431 14.5573 101.275 14.5254 101.118 14.5245M83.5358 7.71106C83.5342 7.3581 83.6727 7.01888 83.921 6.76779C84.1694 6.51671 84.5073 6.37425 84.8606 6.37167H92.7962C92.8986 6.37214 92.9966 6.41289 93.0691 6.48511C93.1415 6.55732 93.1825 6.65516 93.1832 6.7574L93.193 9.10112C93.1947 9.27649 93.1617 9.45046 93.0959 9.61307C93.0301 9.77568 92.9329 9.92372 92.8097 10.0487C92.6866 10.1737 92.5399 10.2732 92.3782 10.3415C92.2165 10.4098 92.0429 10.4456 91.8673 10.4467H83.5349L83.5358 7.71106Z" fill="#EE631A"/>
<path d="M76.7996 16.1883V15.7279C76.8006 15.5708 76.7705 15.415 76.7112 15.2695C76.6519 15.124 76.5645 14.9916 76.4539 14.8799C76.3434 14.7681 76.2119 14.6792 76.0669 14.6182C75.922 14.5573 75.7664 14.5254 75.6092 14.5245H71.4025C72.4488 13.937 73.3184 13.0801 73.9207 12.0429C74.523 11.0058 74.836 9.82637 74.8271 8.62739L74.8075 4.69098C74.7982 3.52466 74.3295 2.40889 73.503 1.58507C72.6765 0.761238 71.5585 0.295588 70.3909 0.288851H55.2653C54.6818 0.292342 54.1047 0.410609 53.5669 0.636899C53.0292 0.86319 52.5413 1.19307 52.1312 1.60771C51.7211 2.02235 51.3967 2.51362 51.1767 3.05348C50.9566 3.59333 50.8451 4.1712 50.8487 4.75409V17.0317C50.8412 17.5072 50.9285 17.9795 51.1054 18.421C51.2824 18.8625 51.5456 19.2644 51.8796 19.6033C52.2136 19.9423 52.6117 20.2114 53.0509 20.3952C53.49 20.5789 53.9613 20.6735 54.4374 20.6735C54.9135 20.6735 55.3849 20.5789 55.824 20.3952C56.2631 20.2114 56.6613 19.9423 56.9953 19.6033C57.3293 19.2644 57.5924 18.8625 57.7694 18.421C57.9464 17.9795 58.0337 17.5072 58.0262 17.0317V15.3581H63.8486L65.7758 18.7844C66.2471 19.7464 66.9786 20.5574 67.8875 21.1255C68.7963 21.6937 69.8463 21.9963 70.9185 21.9991H71.0493C71.8088 21.9948 72.5601 21.8411 73.2601 21.5467C73.9602 21.2523 74.5954 20.8231 75.1294 20.2835C75.6634 19.7439 76.0857 19.1045 76.3723 18.4018C76.6589 17.6992 76.8041 16.947 76.7996 16.1883ZM58.0262 7.71195C58.0245 7.35898 58.1631 7.01976 58.4114 6.76868C58.6598 6.5176 58.9977 6.37514 59.351 6.37256H67.2919C67.3942 6.37302 67.4923 6.41378 67.5647 6.486C67.6372 6.55821 67.6782 6.65605 67.6789 6.75829L67.6887 9.10201C67.6904 9.27738 67.6573 9.45135 67.5916 9.61396C67.5258 9.77657 67.4285 9.92461 67.3054 10.0496C67.1822 10.1746 67.0356 10.2741 66.8739 10.3424C66.7122 10.4107 66.5386 10.4465 66.363 10.4476H58.0306L58.0262 7.71195Z" fill="#EE631A"/>
<path d="M22.4767 13.234H7.51757C7.46662 13.2335 7.41627 13.223 7.36938 13.2031C7.32249 13.1832 7.27999 13.1543 7.2443 13.1179C7.20861 13.0816 7.18042 13.0386 7.16136 12.9915C7.1423 12.9443 7.13273 12.8938 7.1332 12.8429V4.85808C7.14363 3.68402 6.68683 2.55388 5.86326 1.7162C5.03969 0.878509 3.91678 0.40186 2.74146 0.391066H1.31788C0.965619 0.395518 0.62941 0.538915 0.382567 0.789989C0.135723 1.04106 -0.00173228 1.37945 0.000174774 1.73135V16.0256C-0.0102555 17.1997 0.44654 18.3298 1.27011 19.1675C2.09368 20.0052 3.2166 20.4818 4.39192 20.4926H19.4018C20.5771 20.4818 21.7 20.0052 22.5236 19.1675C23.3472 18.3298 23.804 17.1997 23.7935 16.0256V14.5733C23.7952 14.2217 23.6578 13.8837 23.4111 13.6329C23.1645 13.382 22.8287 13.2386 22.4767 13.234Z" fill="#EE631A"/>
<path d="M123.936 0H121.477C121.039 0.00255997 120.606 0.0912449 120.203 0.260987C119.799 0.430729 119.433 0.678203 119.126 0.989275C118.818 1.30035 118.575 1.66892 118.409 2.07395C118.244 2.47898 118.161 2.91252 118.164 3.34982V7.42488C118.166 7.88985 118.018 8.34318 117.743 8.71805C117.294 9.04319 116.759 9.22871 116.205 9.25132H116.2C116.009 9.26554 115.819 9.27887 115.628 9.29043L115.385 9.30376C114.648 9.3755 113.905 9.3483 113.176 9.22288C112.778 9.15036 112.403 8.98549 112.081 8.74157C111.758 8.49765 111.498 8.18149 111.321 7.81861C111.068 7.25832 110.925 6.65499 110.899 6.04105C110.853 5.50778 110.831 4.90696 110.81 4.36036C110.8 4.06351 110.792 3.75954 110.768 3.44847C110.679 2.37571 110.823 1.22652 109.852 0.609705C109.104 0.191805 108.247 0.0111612 107.395 0.091818C106.542 0.172475 105.734 0.510606 105.079 1.0612C104.187 1.84885 103.547 2.88217 103.241 4.03151C102.909 5.53403 102.926 7.09249 103.291 8.5874C103.42 9.41499 103.711 10.209 104.148 10.924C104.585 11.6389 105.158 12.2608 105.836 12.754C107.099 13.6169 108.62 14.0207 110.144 13.8979H113.193C113.234 13.8974 113.274 13.9049 113.312 13.9202C113.35 13.9354 113.385 13.9581 113.414 13.9867C113.454 14.0259 113.483 14.0749 113.498 14.1287C113.512 14.1826 113.513 14.2394 113.499 14.2934C113.485 14.3474 113.457 14.3968 113.417 14.4366C113.378 14.4764 113.329 14.5051 113.275 14.52V14.5254H113.256C113.234 14.5303 113.211 14.5327 113.189 14.5325H103.987C103.708 14.534 103.44 14.6381 103.233 14.8249C103.103 14.9391 102.999 15.0793 102.926 15.2364C102.854 15.3935 102.816 15.5639 102.814 15.7368V16.4709C102.823 17.0268 102.938 17.576 103.152 18.0894C103.901 19.9558 105.999 22 110.379 22H113.03C122.639 22 126.06 16.4727 126.06 11.0004V2.14818C126.062 1.86784 126.008 1.58988 125.903 1.33019C125.797 1.0705 125.641 0.834187 125.444 0.634756C125.246 0.435326 125.012 0.276691 124.753 0.167926C124.494 0.0591621 124.217 0.0024023 123.936 0.000889988" fill="#EE631A"/>
<path d="M43.1186 0.279073H34.7809C29.9443 0.279073 25.3942 1.96776 25.3942 8.0959V15.9687C25.3942 19.962 28.3952 20.4357 31.4675 20.4357H39.8052C44.6427 20.4357 49.192 18.7471 49.192 12.6189V4.74609C49.192 0.752794 46.1909 0.279073 43.1186 0.279073ZM42.5492 12.9886C42.5507 13.1735 42.5157 13.3569 42.4461 13.5283C42.3766 13.6996 42.2738 13.8556 42.1438 13.9872C42.0138 14.1188 41.859 14.2235 41.6884 14.2953C41.5178 14.367 41.3347 14.4044 41.1496 14.4054H33.4347C33.2499 14.4043 33.0671 14.3669 32.8968 14.2953C32.7265 14.2236 32.572 14.1192 32.4421 13.9878C32.3122 13.8565 32.2095 13.7009 32.1398 13.5299C32.0701 13.3589 32.0349 13.1759 32.0361 12.9913V7.7235C32.0349 7.5389 32.0701 7.35587 32.1398 7.18489C32.2095 7.0139 32.3122 6.8583 32.4421 6.72698C32.572 6.59566 32.7265 6.49119 32.8968 6.41955C33.0671 6.34791 33.2499 6.3105 33.4347 6.30945H41.1496C41.3344 6.31062 41.517 6.34811 41.6873 6.41981C41.8575 6.4915 42.0119 6.59598 42.1417 6.72729C42.2715 6.8586 42.3741 7.01416 42.4437 7.18509C42.5134 7.35602 42.5486 7.53897 42.5474 7.7235L42.5492 12.9886Z" fill="#EE631A"/>
<path d="M151.992 19.3763L151.776 13.1771C151.768 12.8018 151.633 12.4403 151.393 12.151C151.154 11.8617 150.824 11.6614 150.457 11.5826C148.657 11.2049 146.11 10.5463 145.212 10.3818C145.04 10.3499 144.88 10.2722 144.749 10.1569C144.618 10.0416 144.52 9.89296 144.467 9.72681C144.467 9.72681 144.318 9.46018 143.666 7.71461C143.014 5.96905 141.84 5.2047 139.708 5.2047H139.671C138.943 3.71877 137.812 2.46739 136.406 1.59367C134.999 0.719949 133.376 0.259149 131.72 0.263962L130.492 0.289736C130.024 0.294196 129.577 0.483812 129.248 0.817019C128.92 1.15023 128.738 1.59984 128.741 2.0673V12.2216C128.702 14.7835 127.832 17.2636 126.261 19.2892C126.188 19.3848 126.143 19.4987 126.132 19.6182C126.12 19.7377 126.142 19.8581 126.195 19.966C126.248 20.0738 126.33 20.1648 126.431 20.2288C126.533 20.2927 126.651 20.3272 126.771 20.3282H140.671C140.455 19.7541 140.369 19.1396 140.418 18.5283C140.466 17.9171 140.649 17.324 140.953 16.7913C141.257 16.2586 141.675 15.7992 142.177 15.4459C142.678 15.0926 143.252 14.8539 143.856 14.7469C144.461 14.6399 145.081 14.6671 145.674 14.8266C146.267 14.9862 146.817 15.2741 147.286 15.67C147.755 16.0659 148.131 16.56 148.387 17.1173C148.643 17.6746 148.773 18.2814 148.768 18.8946C148.767 19.3835 148.681 19.8685 148.514 20.3282H151.166C151.285 20.3275 151.403 20.3014 151.511 20.2516C151.62 20.2018 151.717 20.1294 151.795 20.0393C151.873 19.9492 151.931 19.8434 151.965 19.7291C151.999 19.6148 152.008 19.4945 151.992 19.3763Z" fill="#EE631A"/>
<path d="M147.663 18.8946C147.655 18.2896 147.469 17.7003 147.127 17.2009C146.785 16.7014 146.303 16.3141 145.742 16.0877C145.18 15.8612 144.564 15.8058 143.971 15.9283C143.378 16.0508 142.834 16.3459 142.408 16.7763C141.983 17.2067 141.694 17.7532 141.578 18.3471C141.463 18.9411 141.526 19.5559 141.759 20.1142C141.993 20.6724 142.386 21.1493 142.89 21.4847C143.394 21.8201 143.987 21.9991 144.592 21.9991C145.412 21.9939 146.195 21.664 146.771 21.0818C147.347 20.4997 147.668 19.7129 147.663 18.8946ZM142.35 18.8946C142.356 18.4528 142.492 18.0226 142.741 17.6579C142.991 17.2932 143.343 17.0104 143.753 16.8451C144.163 16.6798 144.613 16.6394 145.046 16.7289C145.479 16.8184 145.876 17.0338 146.187 17.3481C146.498 17.6624 146.709 18.0615 146.793 18.4952C146.877 18.9289 146.831 19.3778 146.661 19.7855C146.49 20.1932 146.203 20.5413 145.835 20.7862C145.467 21.0312 145.035 21.1618 144.592 21.1619C143.994 21.1574 143.422 20.9162 143.002 20.4912C142.582 20.0662 142.347 19.492 142.35 18.8946Z" fill="#EE631A"/>
<path d="M143.315 19.6572H143.742V18.4742H144.203V18.1338H142.852V18.476H143.316L143.315 19.6572Z" fill="#EE631A"/>
<path d="M144.921 18.8706L145.306 19.507H145.495L145.882 18.8493L145.887 19.6572H146.279V18.132H145.929L145.412 19.0119L144.878 18.132H144.526V19.6572H144.921V18.8706Z" fill="#EE631A"/>
</g>
</svg>
