<svg width="171" height="49" viewBox="0 0 171 49" fill="none" xmlns="http://www.w3.org/2000/svg">
<g id="Logo Larry">
<path d="M113.655 16.342H108.927C110.103 15.681 111.08 14.7169 111.757 13.55C112.434 12.383 112.786 11.056 112.776 9.707L112.754 5.278C112.743 3.96572 112.217 2.71033 111.288 1.78341C110.359 0.856496 109.102 0.332577 107.79 0.324997H90.79C90.1342 0.328925 89.4856 0.461991 88.8812 0.716599C88.2768 0.971206 87.7284 1.34237 87.2674 1.80889C86.8065 2.27542 86.442 2.82816 86.1946 3.43558C85.9473 4.04299 85.822 4.69317 85.826 5.349V15.232C86.3348 15.4126 86.7751 15.7466 87.0862 16.1879C87.3973 16.6292 87.5639 17.1561 87.563 17.696V18.214C87.5651 19.4381 87.2805 20.6457 86.732 21.74C87.1071 22.2095 87.583 22.5887 88.1244 22.8493C88.6659 23.11 89.2591 23.2456 89.86 23.246C90.3929 23.2429 90.92 23.1348 91.4111 22.9279C91.9022 22.7211 92.3478 22.4195 92.7224 22.0405C93.097 21.6614 93.3933 21.2123 93.5943 20.7188C93.7953 20.2252 93.8972 19.6969 93.894 19.164V17.28H100.438L102.604 21.135C103.134 22.2175 103.956 23.1301 104.978 23.7693C105.999 24.4086 107.18 24.749 108.385 24.752H108.531C110.255 24.7417 111.904 24.0471 113.115 22.821C114.327 21.5949 115.002 19.9377 114.992 18.214V17.696C114.993 17.5192 114.959 17.344 114.893 17.1803C114.826 17.0166 114.728 16.8676 114.603 16.7419C114.479 16.6162 114.331 16.5161 114.168 16.4475C114.006 16.3789 113.831 16.343 113.654 16.342M93.893 8.676C93.8911 8.27886 94.0468 7.89719 94.326 7.61469C94.6051 7.33219 94.9848 7.17191 95.382 7.169H104.301C104.416 7.16952 104.526 7.21538 104.608 7.29663C104.689 7.37788 104.735 7.48796 104.736 7.603L104.747 10.24C104.749 10.4373 104.712 10.6331 104.638 10.816C104.564 10.999 104.455 11.1655 104.316 11.3062C104.178 11.4468 104.013 11.5588 103.831 11.6356C103.649 11.7125 103.454 11.7527 103.257 11.754H93.892L93.893 8.676Z" fill="white"/>
<path d="M86.322 18.214V17.696C86.3231 17.5192 86.2893 17.344 86.2226 17.1803C86.1559 17.0166 86.0577 16.8676 85.9334 16.7419C85.8092 16.6162 85.6614 16.5161 85.4985 16.4475C85.3356 16.3789 85.1608 16.343 84.984 16.342H80.256C81.432 15.681 82.4094 14.7169 83.0863 13.55C83.7632 12.383 84.115 11.056 84.105 9.707L84.083 5.278C84.0725 3.96572 83.5458 2.71033 82.6168 1.78341C81.6878 0.856496 80.4313 0.332577 79.119 0.324997H62.119C61.4632 0.328925 60.8145 0.461991 60.2101 0.716599C59.6058 0.971206 59.0574 1.34237 58.5965 1.80889C58.1355 2.27542 57.771 2.82816 57.5236 3.43558C57.2763 4.04299 57.1511 4.69317 57.155 5.349V19.163C57.1466 19.698 57.2447 20.2294 57.4436 20.7261C57.6425 21.2229 57.9383 21.6751 58.3137 22.0564C58.689 22.4378 59.1365 22.7406 59.6301 22.9473C60.1237 23.1541 60.6534 23.2605 61.1885 23.2605C61.7236 23.2605 62.2533 23.1541 62.7469 22.9473C63.2405 22.7406 63.688 22.4378 64.0633 22.0564C64.4387 21.6751 64.7345 21.2229 64.9334 20.7261C65.1323 20.2294 65.2304 19.698 65.222 19.163V17.28H71.766L73.932 21.135C74.4617 22.2174 75.2838 23.1298 76.3054 23.7691C77.3269 24.4083 78.507 24.7488 79.712 24.752H79.859C80.7127 24.7472 81.557 24.5742 82.3439 24.243C83.1307 23.9118 83.8446 23.4288 84.4447 22.8217C85.0449 22.2146 85.5196 21.4952 85.8417 20.7046C86.1638 19.914 86.327 19.0677 86.322 18.214ZM65.222 8.677C65.2201 8.27986 65.3758 7.89819 65.655 7.61569C65.9341 7.33318 66.3139 7.17291 66.711 7.17H75.636C75.751 7.17052 75.8612 7.21638 75.9427 7.29763C76.0241 7.37888 76.0702 7.48896 76.071 7.604L76.082 10.241C76.0838 10.4383 76.0467 10.6341 75.9728 10.817C75.8989 11 75.7896 11.1665 75.6512 11.3072C75.5128 11.4478 75.3479 11.5598 75.1662 11.6366C74.9845 11.7135 74.7893 11.7537 74.592 11.755H65.227L65.222 8.677Z" fill="white"/>
<path d="M25.267 14.89H8.454C8.39675 14.8895 8.34015 14.8777 8.28745 14.8553C8.23475 14.8329 8.18699 14.8003 8.14687 14.7595C8.10675 14.7186 8.07508 14.6703 8.05365 14.6172C8.03223 14.5641 8.02148 14.5073 8.022 14.45V5.466C8.03373 4.14502 7.52032 2.87347 6.59468 1.93095C5.66905 0.988442 4.40698 0.452148 3.086 0.440002H1.486C1.09009 0.445012 0.712218 0.606353 0.434784 0.888845C0.15735 1.17134 0.00285956 1.55206 0.00500295 1.948V18.031C-0.00671997 19.352 0.506685 20.6235 1.43232 21.566C2.35795 22.5086 3.62003 23.0449 4.941 23.057H21.811C23.132 23.0449 24.3941 22.5086 25.3197 21.566C26.2453 20.6235 26.7587 19.352 26.747 18.031V16.397C26.7489 16.0014 26.5944 15.6211 26.3172 15.3388C26.04 15.0566 25.6626 14.8953 25.267 14.89Z" fill="white"/>
<path d="M139.3 0H136.536C136.044 0.00288032 135.557 0.102663 135.104 0.293646C134.65 0.484629 134.239 0.763071 133.893 1.11307C133.547 1.46307 133.274 1.87777 133.088 2.33348C132.903 2.78919 132.809 3.27698 132.812 3.769V8.354C132.814 8.87716 132.648 9.38722 132.339 9.809C131.835 10.1748 131.234 10.3836 130.611 10.409H130.605C130.391 10.425 130.177 10.44 129.962 10.453L129.689 10.468C128.861 10.5487 128.026 10.5181 127.206 10.377C126.759 10.2954 126.337 10.1099 125.975 9.83546C125.613 9.56101 125.32 9.2053 125.121 8.797C124.837 8.16661 124.676 7.48777 124.647 6.797C124.596 6.197 124.571 5.521 124.547 4.906C124.536 4.572 124.527 4.23 124.5 3.88C124.4 2.673 124.562 1.38 123.47 0.686001C122.63 0.215807 121.667 0.0125578 120.709 0.103308C119.751 0.194058 118.843 0.574502 118.106 1.194C117.103 2.08021 116.384 3.24284 116.04 4.536C115.667 6.22653 115.686 7.98001 116.096 9.662C116.241 10.5932 116.569 11.4865 117.06 12.291C117.55 13.0954 118.195 13.7951 118.957 14.35C120.376 15.3209 122.085 15.7752 123.799 15.637H127.225C127.271 15.6364 127.317 15.6449 127.359 15.6621C127.402 15.6793 127.441 15.7047 127.474 15.737C127.519 15.7811 127.551 15.8362 127.568 15.8968C127.584 15.9573 127.585 16.0212 127.569 16.082C127.553 16.1428 127.522 16.1984 127.478 16.2431C127.434 16.2879 127.379 16.3203 127.318 16.337V16.343H127.296C127.271 16.3485 127.246 16.3512 127.221 16.351H116.879C116.565 16.3527 116.264 16.4698 116.031 16.68C115.885 16.8086 115.768 16.9663 115.687 17.143C115.606 17.3198 115.562 17.5116 115.56 17.706V18.532C115.571 19.1575 115.7 19.7753 115.94 20.353C116.782 22.453 119.14 24.753 124.063 24.753H127.042C137.842 24.753 141.687 18.534 141.687 12.377V2.417C141.689 2.10157 141.629 1.78883 141.51 1.49664C141.391 1.20446 141.216 0.938575 140.994 0.714188C140.773 0.489801 140.509 0.311315 140.218 0.18894C139.927 0.0665655 139.615 0.00270291 139.3 0.00100136" fill="white"/>
<path d="M48.467 0.313995H39.096C33.66 0.313995 28.546 2.21399 28.546 9.10899V17.967C28.546 22.46 31.919 22.993 35.372 22.993H44.743C50.18 22.993 55.293 21.093 55.293 14.198V5.34C55.293 0.846996 51.92 0.313995 48.467 0.313995ZM47.827 14.614C47.8287 14.822 47.7893 15.0284 47.7112 15.2212C47.633 15.414 47.5175 15.5894 47.3714 15.7375C47.2252 15.8856 47.0513 16.0034 46.8596 16.0841C46.6678 16.1649 46.462 16.207 46.254 16.208H37.583C37.3753 16.2068 37.1699 16.1647 36.9784 16.0841C36.787 16.0035 36.6133 15.886 36.4673 15.7382C36.3214 15.5905 36.2059 15.4154 36.1276 15.223C36.0493 15.0306 36.0097 14.8247 36.011 14.617V8.68999C36.0097 8.48229 36.0493 8.27636 36.1276 8.08398C36.2059 7.89159 36.3214 7.71652 36.4673 7.56877C36.6133 7.42102 36.787 7.30348 36.9784 7.22287C37.1699 7.14227 37.3753 7.10017 37.583 7.099H46.254C46.4616 7.1003 46.6669 7.1425 46.8583 7.22316C47.0496 7.30382 47.2231 7.42138 47.369 7.56912C47.5149 7.71686 47.6302 7.89189 47.7085 8.08421C47.7867 8.27653 47.8263 8.48237 47.825 8.68999L47.827 14.614Z" fill="white"/>
<path d="M170.833 21.801L170.59 14.826C170.581 14.4038 170.429 13.9971 170.16 13.6715C169.891 13.346 169.52 13.1207 169.107 13.032C167.084 12.607 164.222 11.866 163.212 11.681C163.019 11.6451 162.839 11.5576 162.692 11.4279C162.545 11.2981 162.435 11.1309 162.375 10.944C162.375 10.944 162.208 10.644 161.475 8.67999C160.742 6.71599 159.423 5.856 157.026 5.856H156.985C156.167 4.18412 154.895 2.77615 153.315 1.7931C151.734 0.810041 149.909 0.291578 148.048 0.296993L146.668 0.325993C146.142 0.331011 145.64 0.544355 145.271 0.919258C144.902 1.29416 144.697 1.80004 144.7 2.32599V13.751C144.656 16.6335 143.678 19.424 141.913 21.703C141.831 21.8105 141.781 21.9387 141.768 22.0731C141.755 22.2076 141.779 22.3431 141.839 22.4644C141.898 22.5858 141.99 22.6881 142.104 22.7601C142.219 22.8321 142.351 22.8708 142.486 22.872H158.109C157.867 22.2261 157.769 21.5347 157.824 20.8469C157.879 20.1591 158.084 19.4919 158.426 18.8925C158.768 18.2931 159.237 17.7763 159.801 17.3787C160.365 16.9812 161.01 16.7127 161.689 16.5923C162.368 16.4719 163.066 16.5025 163.732 16.682C164.398 16.8615 165.017 17.1855 165.544 17.6309C166.07 18.0763 166.493 18.6323 166.781 19.2593C167.068 19.8864 167.215 20.5691 167.209 21.259C167.208 21.8091 167.111 22.3548 166.924 22.872H169.904C170.038 22.8712 170.171 22.8419 170.293 22.7858C170.415 22.7297 170.523 22.6483 170.611 22.5469C170.699 22.4455 170.764 22.3265 170.803 22.1979C170.841 22.0693 170.851 21.934 170.833 21.801Z" fill="white"/>
<path d="M165.967 21.259C165.959 20.5783 165.749 19.9153 165.365 19.3533C164.981 18.7913 164.439 18.3556 163.808 18.1008C163.177 17.846 162.484 17.7837 161.817 17.9215C161.151 18.0594 160.54 18.3913 160.061 18.8756C159.583 19.3598 159.258 19.9748 159.129 20.643C158.999 21.3113 159.07 22.003 159.332 22.6312C159.594 23.2593 160.037 23.7958 160.603 24.1732C161.17 24.5506 161.835 24.752 162.516 24.752C163.437 24.7462 164.318 24.375 164.965 23.72C165.612 23.0649 165.972 22.1798 165.967 21.259ZM159.996 21.259C160.002 20.762 160.155 20.2778 160.436 19.8675C160.716 19.4572 161.112 19.139 161.573 18.953C162.034 18.7671 162.54 18.7216 163.026 18.8223C163.513 18.923 163.959 19.1654 164.309 19.519C164.658 19.8727 164.895 20.3217 164.99 20.8097C165.084 21.2976 165.033 21.8027 164.841 22.2614C164.649 22.7201 164.326 23.1118 163.913 23.3874C163.499 23.6629 163.013 23.81 162.516 23.81C161.844 23.805 161.201 23.5336 160.729 23.0554C160.256 22.5772 159.993 21.9312 159.996 21.259Z" fill="white"/>
<path d="M161.08 22.117H161.56V20.786H162.078V20.403H160.56V20.788H161.081L161.08 22.117Z" fill="white"/>
<path d="M162.885 21.232L163.318 21.948H163.531L163.966 21.208L163.971 22.117H164.412V20.401H164.018L163.437 21.391L162.837 20.401H162.442V22.117H162.885V21.232Z" fill="white"/>
<path d="M34.517 48.245C33.5913 48.2722 32.67 48.1071 31.8113 47.7603C30.9527 47.4135 30.1752 46.8924 29.528 46.23C28.2563 44.8825 27.5479 43.0998 27.5479 41.247C27.5479 39.3942 28.2563 37.6115 29.528 36.264C30.6103 35.2051 32.0042 34.522 33.5042 34.3155C35.0042 34.109 36.5308 34.39 37.859 35.117C38.8545 35.6693 39.6808 36.4825 40.249 37.469L38.349 38.587C37.9939 37.9199 37.4554 37.3682 36.797 36.997C36.1043 36.6016 35.3185 36.3985 34.521 36.409C33.8813 36.3836 33.2434 36.4922 32.6482 36.728C32.053 36.9638 31.5137 37.3214 31.065 37.778C30.2125 38.7328 29.7413 39.968 29.7413 41.248C29.7413 42.528 30.2125 43.7632 31.065 44.718C31.5137 45.1746 32.053 45.5323 32.6482 45.768C33.2434 46.0038 33.8813 46.1125 34.521 46.087C35.3213 46.097 36.1099 45.8941 36.806 45.499C37.4664 45.1334 38.0034 44.5801 38.349 43.909L40.249 45.009C39.6905 45.9988 38.8702 46.8157 37.878 47.37C36.8552 47.9551 35.6953 48.2578 34.517 48.247" fill="white"/>
<path d="M45.637 48.245C44.9748 48.2571 44.3172 48.1333 43.7048 47.8813C43.0923 47.6293 42.538 47.2545 42.076 46.78C41.3615 46.0735 40.8731 45.1706 40.6727 44.1859C40.4724 43.2013 40.5692 42.1793 40.9507 41.2497C41.3323 40.3202 41.9815 39.525 42.8159 38.965C43.6502 38.4051 44.6322 38.1058 45.637 38.105C46.3009 38.0912 46.9605 38.2142 47.5748 38.4662C48.1892 38.7183 48.7451 39.094 49.208 39.57C50.1424 40.5373 50.6647 41.8296 50.6647 43.1745C50.6647 44.5194 50.1424 45.8117 49.208 46.779C48.7451 47.2551 48.1892 47.6309 47.5749 47.8829C46.9605 48.1349 46.3009 48.2588 45.637 48.245ZM43.523 45.352C44.0861 45.908 44.8456 46.2197 45.637 46.2197C46.4284 46.2197 47.1878 45.908 47.751 45.352C48.3012 44.76 48.607 43.9817 48.607 43.1735C48.607 42.3653 48.3012 41.587 47.751 40.995C47.1878 40.439 46.4284 40.1273 45.637 40.1273C44.8456 40.1273 44.0861 40.439 43.523 40.995C42.9728 41.587 42.667 42.3653 42.667 43.1735C42.667 43.9817 42.9728 44.76 43.523 45.352Z" fill="white"/>
<path d="M56.777 38.105C57.268 38.0853 57.7576 38.1696 58.2137 38.3522C58.6699 38.5349 59.0823 38.8119 59.424 39.165C60.1305 39.9646 60.4931 41.0107 60.433 42.076V47.994H58.376V42.288C58.3961 41.9875 58.3559 41.6861 58.2579 41.4014C58.1598 41.1166 58.0058 40.8544 57.805 40.63C57.5981 40.4321 57.3529 40.2786 57.0844 40.1792C56.8159 40.0798 56.5299 40.0365 56.244 40.052C55.9205 40.0383 55.5977 40.092 55.2961 40.2098C54.9945 40.3275 54.7207 40.5067 54.492 40.736C54.0044 41.3191 53.7653 42.0703 53.826 42.828V47.994H51.769V38.355H53.826V39.589C54.1389 39.0988 54.5783 38.7022 55.0979 38.441C55.6175 38.1798 56.1979 38.0637 56.778 38.105" fill="white"/>
<path d="M67.194 40.36H64.83V44.987C64.8153 45.1406 64.8314 45.2955 64.8772 45.4429C64.923 45.5902 64.9978 45.7269 65.097 45.845C65.3164 46.0343 65.5973 46.1371 65.887 46.134C66.3202 46.1525 66.7541 46.1492 67.187 46.124V47.994C66.0431 48.2514 64.8453 48.1052 63.797 47.58C63.4233 47.2676 63.1335 46.8668 62.954 46.4139C62.7745 45.9611 62.7109 45.4706 62.769 44.987V40.36H61.017V38.355H62.769V36.273L64.826 35.656V38.356H67.187L67.194 40.36Z" fill="white"/>
<path d="M70.45 39.978C70.685 39.4063 71.0959 38.9243 71.6233 38.6019C72.1507 38.2795 72.767 38.1335 73.383 38.185V40.441C72.6509 40.3741 71.9196 40.5764 71.326 41.01C71.0179 41.2672 70.7772 41.5955 70.6245 41.9667C70.4719 42.3378 70.412 42.7405 70.45 43.14V47.998H68.393V38.359H70.45V39.978Z" fill="white"/>
<path d="M78.196 48.245C77.5338 48.2571 76.8762 48.1333 76.2638 47.8813C75.6513 47.6293 75.097 47.2545 74.635 46.78C73.9205 46.0735 73.4321 45.1706 73.2317 44.1859C73.0314 43.2013 73.1282 42.1793 73.5097 41.2497C73.8913 40.3202 74.5405 39.525 75.3749 38.965C76.2092 38.4051 77.1912 38.1058 78.196 38.105C78.8599 38.0912 79.5195 38.2142 80.1338 38.4662C80.7481 38.7183 81.3041 39.094 81.767 39.57C82.7014 40.5373 83.2236 41.8296 83.2236 43.1745C83.2236 44.5194 82.7014 45.8117 81.767 46.779C81.3042 47.2553 80.7483 47.6312 80.134 47.8834C79.5196 48.1356 78.8599 48.2587 78.196 48.245ZM76.082 45.353C76.6451 45.909 77.4046 46.2207 78.196 46.2207C78.9873 46.2207 79.7468 45.909 80.31 45.353C80.8602 44.761 81.166 43.9827 81.166 43.1745C81.166 42.3663 80.8602 41.588 80.31 40.996C79.7468 40.44 78.9873 40.1283 78.196 40.1283C77.4046 40.1283 76.6451 40.44 76.082 40.996C75.5318 41.588 75.2259 42.3663 75.2259 43.1745C75.2259 43.9827 75.5318 44.761 76.082 45.353Z" fill="white"/>
<path d="M86.389 33.922H84.332V47.995H86.389V33.922Z" fill="white"/>
<path d="M94.443 48.245C93.5173 48.2722 92.596 48.1071 91.7373 47.7603C90.8786 47.4135 90.1012 46.8924 89.454 46.23C88.1823 44.8825 87.4739 43.0998 87.4739 41.247C87.4739 39.3942 88.1823 37.6115 89.454 36.264C90.5363 35.2051 91.9302 34.522 93.4302 34.3155C94.9302 34.109 96.4568 34.39 97.785 35.117C98.7806 35.6693 99.6068 36.4824 100.175 37.469L98.275 38.587C97.9199 37.9199 97.3813 37.3682 96.723 36.997C96.0303 36.6016 95.2445 36.3986 94.447 36.409C93.8073 36.3836 93.1694 36.4923 92.5742 36.7281C91.9791 36.9639 91.4398 37.3215 90.991 37.778C90.1387 38.7329 89.6676 39.9681 89.6676 41.248C89.6676 42.528 90.1387 43.7631 90.991 44.718C91.4397 45.1746 91.979 45.5323 92.5742 45.768C93.1694 46.0038 93.8073 46.1125 94.447 46.087C95.2473 46.097 96.0359 45.8941 96.732 45.499C97.3924 45.1335 97.9294 44.5801 98.275 43.909L100.175 45.009C99.6165 45.9988 98.7962 46.8157 97.804 47.37C96.7812 47.9551 95.6213 48.2578 94.443 48.247" fill="white"/>
<path d="M102.689 44.062C102.807 44.7389 103.182 45.3437 103.737 45.749C104.324 46.1537 105.025 46.3598 105.737 46.337C106.215 46.3655 106.692 46.27 107.123 46.0597C107.553 45.8495 107.922 45.5316 108.193 45.137L109.888 46.137C109.436 46.8201 108.813 47.3733 108.082 47.7417C107.35 48.11 106.535 48.2808 105.717 48.237C105.027 48.2667 104.338 48.1545 103.693 47.9075C103.048 47.6606 102.46 47.284 101.966 46.801C101.494 46.3243 101.123 45.7563 100.878 45.1316C100.632 44.507 100.517 43.8388 100.538 43.168C100.52 42.5019 100.635 41.8389 100.877 41.218C101.119 40.5972 101.483 40.031 101.947 39.553C102.415 39.0716 102.979 38.6934 103.602 38.4428C104.225 38.1923 104.894 38.0748 105.565 38.098C106.212 38.0793 106.854 38.2024 107.448 38.4588C108.042 38.7152 108.572 39.0986 109.002 39.582C109.894 40.5656 110.375 41.8543 110.345 43.182C110.339 43.4727 110.313 43.7627 110.269 44.05L102.689 44.062ZM102.67 42.362H108.27C108.182 41.6714 107.839 41.0386 107.308 40.588C106.809 40.1895 106.186 39.9773 105.547 39.988C104.859 39.9545 104.182 40.179 103.651 40.6174C103.119 41.0559 102.769 41.6768 102.671 42.359" fill="white"/>
<path d="M116.399 38.105C116.89 38.0853 117.38 38.1696 117.836 38.3522C118.292 38.5349 118.704 38.8119 119.046 39.165C119.753 39.9646 120.115 41.0107 120.055 42.076V47.994H117.998V42.288C118.018 41.9875 117.978 41.6861 117.88 41.4014C117.782 41.1167 117.628 40.8544 117.427 40.63C117.22 40.4321 116.975 40.2786 116.706 40.1792C116.438 40.0798 116.152 40.0365 115.866 40.052C115.542 40.0383 115.22 40.092 114.918 40.2098C114.616 40.3275 114.343 40.5067 114.114 40.736C113.626 41.3191 113.387 42.0703 113.448 42.828V47.994H111.391V38.355H113.448V39.589C113.761 39.0988 114.2 38.7022 114.72 38.441C115.239 38.1798 115.819 38.0637 116.399 38.105Z" fill="white"/>
<path d="M126.817 40.36H124.456V44.987C124.441 45.1406 124.457 45.2955 124.503 45.4428C124.549 45.5901 124.624 45.7268 124.723 45.845C124.943 46.0344 125.224 46.1372 125.514 46.134C125.947 46.1525 126.381 46.1492 126.814 46.124V47.994C125.67 48.2514 124.472 48.1052 123.424 47.58C123.05 47.2677 122.76 46.8669 122.58 46.4141C122.401 45.9613 122.337 45.4707 122.395 44.987V40.36H120.65V38.355H122.402V36.273L124.459 35.656V38.356H126.82L126.817 40.36Z" fill="white"/>
<path d="M129.158 44.062C129.276 44.7388 129.651 45.3436 130.206 45.749C130.793 46.1536 131.494 46.3597 132.206 46.337C132.684 46.3656 133.161 46.2701 133.592 46.0598C134.022 45.8496 134.391 45.5317 134.662 45.137L136.356 46.137C135.904 46.82 135.282 47.373 134.55 47.7414C133.819 48.1097 133.004 48.2806 132.186 48.237C131.496 48.2666 130.807 48.1544 130.162 47.9074C129.517 47.6605 128.929 47.2839 128.435 46.801C127.963 46.3242 127.592 45.7562 127.347 45.1316C127.101 44.5069 126.986 43.8388 127.007 43.168C126.989 42.5019 127.104 41.8389 127.346 41.218C127.588 40.5972 127.952 40.031 128.416 39.553C128.884 39.0714 129.448 38.6932 130.072 38.4426C130.695 38.192 131.364 38.0746 132.035 38.098C132.682 38.0792 133.324 38.2024 133.918 38.4588C134.512 38.7152 135.042 39.0986 135.472 39.582C136.364 40.5655 136.845 41.8542 136.815 43.182C136.809 43.4727 136.784 43.7626 136.739 44.05L129.158 44.062ZM129.139 42.362H134.739C134.651 41.6712 134.308 41.0384 133.777 40.588C133.278 40.1895 132.655 39.9773 132.016 39.988C131.328 39.9545 130.651 40.179 130.12 40.6174C129.588 41.0558 129.238 41.6768 129.14 42.359" fill="white"/>
<path d="M139.918 39.978C140.153 39.4063 140.564 38.9243 141.091 38.6019C141.619 38.2795 142.235 38.1335 142.851 38.185V40.441C142.119 40.3741 141.388 40.5764 140.794 41.01C140.486 41.2672 140.245 41.5955 140.093 41.9667C139.94 42.3378 139.88 42.7405 139.918 43.14V47.998H137.861V38.359H139.918V39.978Z" fill="white"/>
<path d="M22.896 40.698H0V43.293H22.896V40.698Z" fill="white"/>
<path d="M169.615 40.698H146.718V43.293H169.615V40.698Z" fill="white"/>
</g>
</svg>
