<svg width="40" height="40" viewBox="0 0 40 40" fill="none" xmlns="http://www.w3.org/2000/svg">
<path d="M20 40C31.0457 40 40 31.0457 40 20C40 8.9543 31.0457 0 20 0C8.9543 0 0 8.9543 0 20C0 31.0457 8.9543 40 20 40Z" fill="#DCE6E3"/>
<path opacity="0.4" d="M13 14V27.5385C13 28.8962 14.0464 30 15.3333 30H24.6667C25.9536 30 27 28.8962 27 27.5385V14H13ZM15.9167 17.0769C15.9167 16.7385 16.1792 16.4615 16.5 16.4615C16.8208 16.4615 17.0833 16.7385 17.0833 17.0769V25.6923C17.0833 26.0308 16.8208 26.3077 16.5 26.3077C16.1792 26.3077 15.9167 26.0308 15.9167 25.6923V17.0769ZM19.4167 17.0769C19.4167 16.7385 19.6792 16.4615 20 16.4615C20.3208 16.4615 20.5833 16.7385 20.5833 17.0769V25.6923C20.5833 26.0308 20.3208 26.3077 20 26.3077C19.6792 26.3077 19.4167 26.0308 19.4167 25.6923V17.0769ZM22.9167 17.0769C22.9167 16.7385 23.1792 16.4615 23.5 16.4615C23.8208 16.4615 24.0833 16.7385 24.0833 17.0769V25.6923C24.0833 26.0308 23.8208 26.3077 23.5 26.3077C23.1792 26.3077 22.9167 26.0308 22.9167 25.6923V17.0769Z" fill="#17645D"/>
<path d="M17.5813 10C17.0951 10 16.6491 10.2833 16.4321 10.7375L16.1429 11.3333H12.2857C11.5746 11.3333 11 11.9292 11 12.6667C11 13.4042 11.5746 14 12.2857 14H27.7143C28.4254 14 29 13.4042 29 12.6667C29 11.9292 28.4254 11.3333 27.7143 11.3333H23.8571L23.5679 10.7375C23.3509 10.2833 22.9049 10 22.4188 10H17.5813Z" fill="#17645D"/>
</svg>
