<svg width="40" height="40" viewBox="0 0 40 40" fill="none" xmlns="http://www.w3.org/2000/svg">
<path d="M20 40C31.0457 40 40 31.0457 40 20C40 8.9543 31.0457 0 20 0C8.9543 0 0 8.9543 0 20C0 31.0457 8.9543 40 20 40Z" fill="#DCE6E3"/>
<path d="M11.3733 25.1631C11.3733 25.3368 11.4093 25.5145 11.4853 25.6804C11.6933 26.1345 12.1493 26.4267 12.6533 26.4267H28.0133C28.5173 26.4267 28.9733 26.1345 29.1813 25.6804C29.2573 25.5145 29.2933 25.3368 29.2933 25.1631C29.2933 24.859 29.1813 24.5589 28.9693 24.322L28.6733 23.9943C27.4253 22.6043 26.7333 20.8155 26.7333 18.9557V18.2133C26.7333 15.157 24.5333 12.6062 21.6133 12.0217V11.2636C21.6133 10.5647 21.0413 10 20.3333 10C19.6253 10 19.0533 10.5647 19.0533 11.2636V12.0217C16.1333 12.6062 13.9333 15.157 13.9333 18.2133V18.9557C13.9333 20.8116 13.2413 22.6043 11.9933 23.9943L11.6973 24.322C11.4853 24.5589 11.3733 24.859 11.3733 25.1631Z" fill="#17645D"/>
<path opacity="0.4" d="M22.9466 27.3867C22.9466 28.0809 22.6731 28.7465 22.1831 29.2365C21.6931 29.7265 21.0275 30.0001 20.3333 30.0001C19.6391 30.0001 18.9736 29.7265 18.4836 29.2365C17.9936 28.7465 17.72 28.0809 17.72 27.3867H20.3333H22.9466Z" fill="#17645D"/>
</svg>
