<svg id="Lorry_ControlCenter_Naranja" xmlns="http://www.w3.org/2000/svg" xmlns:xlink="http://www.w3.org/1999/xlink" width="772" height="272" viewBox="0 0 772 272">
  <defs>
    <clipPath id="clip-path">
      <rect id="Rectángulo_7218" data-name="Rectángulo 7218" width="772" height="272" fill="none"/>
    </clipPath>
  </defs>
  <g id="Grupo_31907" data-name="Grupo 31907">
    <g id="Grupo_31907-2" data-name="Grupo 31907" clip-path="url(#clip-path)">
      <path id="Trazado_10623" data-name="Trazado 10623" d="M372.4,93.742h-18.77a29.986,29.986,0,0,0,15.281-26.361l-.087-17.6a19.831,19.831,0,0,0-19.708-19.675H281.622a19.835,19.835,0,0,0-19.71,19.957V89.331a10.369,10.369,0,0,1,6.9,9.79v2.057a31.15,31.15,0,0,1-3.3,14.006,15.9,15.9,0,0,0,12.418,5.982,16.117,16.117,0,0,0,16.015-16.216V97.466h25.98l8.6,15.316a25.624,25.624,0,0,0,22.95,14.37h.581a25.814,25.814,0,0,0,25.655-25.973V99.121a5.346,5.346,0,0,0-5.311-5.379M293.941,63.29a5.951,5.951,0,0,1,5.913-5.988h35.412a1.737,1.737,0,0,1,1.725,1.723l.044,10.476a5.952,5.952,0,0,1-5.914,6.013H293.941Z" transform="translate(126.917 16.083)" fill="#ee631a"/>
      <path id="Trazado_10624" data-name="Trazado 10624" d="M300.817,101.178V99.121a5.346,5.346,0,0,0-5.311-5.379H276.734a29.985,29.985,0,0,0,15.281-26.361l-.087-17.6a19.83,19.83,0,0,0-19.708-19.675H204.73a19.835,19.835,0,0,0-19.71,19.957V104.95a16.016,16.016,0,1,0,32.029,0V97.466H243.03l8.6,15.316a25.623,25.623,0,0,0,22.95,14.37h.583a25.814,25.814,0,0,0,25.654-25.973M217.049,63.29a5.951,5.951,0,0,1,5.913-5.988h35.412a1.737,1.737,0,0,1,1.725,1.723l.044,10.476a5.952,5.952,0,0,1-5.914,6.013h-37.18Z" transform="translate(89.982 16.083)" fill="#ee631a"/>
      <path id="Trazado_10625" data-name="Trazado 10625" d="M132.045,87.819H65.3a1.732,1.732,0,0,1-1.716-1.747V50.381a19.784,19.784,0,0,0-19.6-19.966H37.613a5.937,5.937,0,0,0-5.88,5.992V100.3a19.785,19.785,0,0,0,19.6,19.965h67a19.785,19.785,0,0,0,19.6-19.965v-6.49a5.936,5.936,0,0,0-5.88-5.989" transform="translate(16.349 16.235)" fill="#ee631a"/>
      <path id="Trazado_10626" data-name="Trazado 10626" d="M435.907,29.251H424.933A14.877,14.877,0,0,0,410.15,44.225V62.439c-.152,2.075-.619,4.506-1.876,5.781-1.482,1.5-4.607,2.119-6.862,2.374a.144.144,0,0,0-.036,0c-.852.064-1.7.124-2.554.174-.36.022-.72.042-1.083.06-3.4.132-7.421.349-9.858-.361-4.135-1.2-6.286-2.557-8.28-6.277a21.575,21.575,0,0,1-1.882-7.942c-.2-2.377-.3-5.068-.385-7.514-.045-1.329-.079-2.686-.188-4.076-.4-4.8.248-9.934-4.088-12.688-7.328-4.653-16-2.065-21.3,2.02-5.175,3.993-7.61,11.056-8.2,13.275-1.612,6.3-1.277,14,.221,20.365,2.033,8.092,4.7,14.078,11.357,18.626s11.928,5.113,19.222,5.113h13.6a1.386,1.386,0,0,1,.99.417,1.424,1.424,0,0,1-.621,2.369l.016.023h-.089a1.305,1.305,0,0,1-.3.031H346.89a5.062,5.062,0,0,0-3.366,1.308,5.522,5.522,0,0,0-1.869,4.074v3.281a19.744,19.744,0,0,0,1.507,7.235c3.344,8.328,12.7,17.473,32.249,17.473h11.827c42.869,0,58.145-24.708,58.145-49.167V38.85a9.538,9.538,0,0,0-9.475-9.6" transform="translate(165.225 15.654)" fill="#ee631a"/>
      <path id="Trazado_10627" data-name="Trazado 10627" d="M187.381,30.083h-37.2c-21.584,0-41.885,7.562-41.885,34.939v35.191c0,17.851,13.393,19.965,27.1,19.965h37.2c21.585,0,41.885-7.562,41.885-34.939V50.048c0-17.851-13.393-19.965-27.1-19.965M184.84,86.9a6.28,6.28,0,0,1-6.238,6.321H144.177a6.28,6.28,0,0,1-6.24-6.321V63.356a6.279,6.279,0,0,1,6.24-6.319H178.6a6.279,6.279,0,0,1,6.238,6.319Z" transform="translate(53.126 16.069)" fill="#ee631a"/>
      <path id="Trazado_10628" data-name="Trazado 10628" d="M527.337,115.464l-.966-27.71a7.461,7.461,0,0,0-5.886-7.129c-8.03-1.687-19.393-4.631-23.4-5.365a4.322,4.322,0,0,1-3.323-2.927s-.664-1.2-3.567-9-8.146-11.218-17.665-11.218h-.164a39.369,39.369,0,0,0-35.481-22.084l-5.479.114a7.89,7.89,0,0,0-7.815,7.963V83.486c0,14.559-6.6,25.71-11.063,31.591a2.894,2.894,0,0,0,2.276,4.644h62.028a18.668,18.668,0,1,1,36.128-6.408,18.972,18.972,0,0,1-1.13,6.408h11.831a3.745,3.745,0,0,0,3.681-4.257" transform="translate(198.983 16.045)" fill="#ee631a"/>
      <path id="Trazado_10629" data-name="Trazado 10629" d="M485.736,90.194a13.7,13.7,0,1,0-13.7,13.878,13.792,13.792,0,0,0,13.7-13.878m-23.706,0a10.005,10.005,0,1,1,10,10.134,10.082,10.082,0,0,1-10-10.134" transform="translate(221.271 39.164)" fill="#ee631a"/>
      <path id="Trazado_10630" data-name="Trazado 10630" d="M464.406,90.114h1.9V84.826h2.056V83.3h-6.027v1.528h2.067Z" transform="translate(223.196 42.653)" fill="#ee631a"/>
      <path id="Trazado_10631" data-name="Trazado 10631" d="M469.15,86.6l1.72,2.843h.847l1.728-2.941.02,3.612h1.749l-.02-6.815h-1.566l-2.308,3.933L468.957,83.3H467.39v6.815h1.76Z" transform="translate(225.621 42.653)" fill="#ee631a"/>
      <path id="Trazado_10632" data-name="Trazado 10632" d="M133.282,175.585q-11.946,0-19.809-8a28.854,28.854,0,0,1,0-39.592q7.863-8,19.809-8a26.477,26.477,0,0,1,13.269,3.446,24.886,24.886,0,0,1,9.488,9.345l-7.559,4.44a15.739,15.739,0,0,0-6.163-6.318,17.746,17.746,0,0,0-9.035-2.336q-8.467,0-13.721,5.439a20.706,20.706,0,0,0,0,27.569q5.254,5.439,13.721,5.437a17.918,17.918,0,0,0,9.072-2.336,15.143,15.143,0,0,0,6.126-6.318l7.559,4.367a24.576,24.576,0,0,1-9.412,9.379,26.372,26.372,0,0,1-13.344,3.485" transform="translate(51.837 60.978)" fill="#ee631a"/>
      <path id="Trazado_10633" data-name="Trazado 10633" d="M160.6,170.484a19.238,19.238,0,0,1-14.137-5.821,20.523,20.523,0,0,1,0-28.641,20.124,20.124,0,0,1,28.314,0,20.62,20.62,0,0,1,0,28.641,19.21,19.21,0,0,1-14.176,5.821M152.212,159A11.942,11.942,0,0,0,169,159a12.709,12.709,0,0,0,0-17.308,11.942,11.942,0,0,0-16.785,0,12.707,12.707,0,0,0,0,17.308" transform="translate(68.666 66.081)" fill="#ee631a"/>
      <path id="Trazado_10634" data-name="Trazado 10634" d="M190.457,130.2a13.849,13.849,0,0,1,10.509,4.211q4.006,4.215,4.007,11.566v23.511h-8.166V146.82q0-4.29-2.269-6.588a8.309,8.309,0,0,0-6.2-2.3,9.268,9.268,0,0,0-6.956,2.719q-2.647,2.719-2.645,8.31v20.524h-8.166V131.2h8.166v4.9q3.7-5.9,11.719-5.9" transform="translate(83.043 66.081)" fill="#ee631a"/>
      <path id="Trazado_10635" data-name="Trazado 10635" d="M219.89,142.4h-9.375v18.38a4.619,4.619,0,0,0,1.059,3.408,4.723,4.723,0,0,0,3.138,1.149,51.182,51.182,0,0,0,5.178-.039v7.429q-9.377,1.147-13.458-1.646t-4.083-10.3V142.4h-6.955v-7.966h6.955v-8.271l8.166-2.45v10.722h9.375Z" transform="translate(94.966 62.841)" fill="#ee631a"/>
      <path id="Trazado_10636" data-name="Trazado 10636" d="M223.323,137.527q3.1-7.124,11.643-7.123v8.962a11.987,11.987,0,0,0-8.165,2.26q-3.478,2.564-3.478,8.462v19.3h-8.165V131.094h8.165Z" transform="translate(104.46 66.183)" fill="#ee631a"/>
      <path id="Trazado_10637" data-name="Trazado 10637" d="M247.937,170.484a19.237,19.237,0,0,1-14.137-5.821,20.521,20.521,0,0,1,0-28.641,20.123,20.123,0,0,1,28.313,0,20.62,20.62,0,0,1,0,28.641,19.209,19.209,0,0,1-14.176,5.821M239.545,159a11.942,11.942,0,0,0,16.784,0,12.708,12.708,0,0,0,0-17.308,11.941,11.941,0,0,0-16.784,0,12.708,12.708,0,0,0,0,17.308" transform="translate(110.618 66.081)" fill="#ee631a"/>
      <rect id="Rectángulo_7215" data-name="Rectángulo 7215" width="8.166" height="55.906" transform="translate(382.897 179.662)" fill="#ee631a"/>
      <path id="Trazado_10638" data-name="Trazado 10638" d="M294,175.585q-11.947,0-19.809-8a28.854,28.854,0,0,1,0-39.592q7.864-8,19.809-8a26.473,26.473,0,0,1,13.268,3.446,24.88,24.88,0,0,1,9.488,9.345l-7.559,4.44a15.737,15.737,0,0,0-6.162-6.318A17.75,17.75,0,0,0,294,128.562q-8.469,0-13.723,5.439a20.71,20.71,0,0,0,0,27.569q5.255,5.439,13.723,5.437a17.919,17.919,0,0,0,9.071-2.336,15.141,15.141,0,0,0,6.125-6.318l7.559,4.367a24.572,24.572,0,0,1-9.412,9.379A26.373,26.373,0,0,1,294,175.585" transform="translate(129.042 60.978)" fill="#ee631a"/>
      <path id="Trazado_10639" data-name="Trazado 10639" d="M309.908,153.864a10.53,10.53,0,0,0,4.159,6.7,13.234,13.234,0,0,0,7.939,2.336q6.5,0,9.753-4.749l6.728,3.982q-5.6,8.35-16.558,8.348-9.225,0-14.892-5.706a19.62,19.62,0,0,1-5.671-14.434,19.84,19.84,0,0,1,5.594-14.36,19.111,19.111,0,0,1,14.365-5.782,17.571,17.571,0,0,1,13.646,5.9,20.6,20.6,0,0,1,5.331,14.321,26.309,26.309,0,0,1-.3,3.447Zm-.076-6.739H332.06a11.084,11.084,0,0,0-3.818-7.046,10.915,10.915,0,0,0-6.992-2.374,11,11,0,0,0-11.417,9.42" transform="translate(145.869 66.081)" fill="#ee631a"/>
      <path id="Trazado_10640" data-name="Trazado 10640" d="M350.36,130.2a13.85,13.85,0,0,1,10.509,4.211q4.005,4.215,4.007,11.566v23.511h-8.166V146.82q0-4.29-2.268-6.588a8.313,8.313,0,0,0-6.2-2.3,9.266,9.266,0,0,0-6.956,2.719q-2.647,2.719-2.646,8.31v20.524h-8.165V131.2h8.165v4.9q3.7-5.9,11.719-5.9" transform="translate(159.852 66.081)" fill="#ee631a"/>
      <path id="Trazado_10641" data-name="Trazado 10641" d="M379.792,142.4h-9.375v18.38a4.621,4.621,0,0,0,1.059,3.408,4.727,4.727,0,0,0,3.139,1.149,51.166,51.166,0,0,0,5.177-.039v7.429q-9.376,1.147-13.457-1.646t-4.083-10.3V142.4H355.3v-7.966h6.954v-8.271l8.165-2.45v10.722h9.375Z" transform="translate(171.777 62.841)" fill="#ee631a"/>
      <path id="Trazado_10642" data-name="Trazado 10642" d="M380.9,153.864a10.535,10.535,0,0,0,4.16,6.7,13.235,13.235,0,0,0,7.939,2.336q6.5,0,9.753-4.749l6.726,3.982q-5.594,8.35-16.557,8.348-9.224,0-14.893-5.706a19.625,19.625,0,0,1-5.67-14.434,19.843,19.843,0,0,1,5.593-14.36,19.112,19.112,0,0,1,14.366-5.782,17.573,17.573,0,0,1,13.645,5.9,20.6,20.6,0,0,1,5.33,14.321,26.092,26.092,0,0,1-.3,3.447Zm-.075-6.739h22.227a11.074,11.074,0,0,0-3.818-7.046,10.912,10.912,0,0,0-6.992-2.374,11,11,0,0,0-11.418,9.42" transform="translate(179.971 66.081)" fill="#ee631a"/>
      <path id="Trazado_10643" data-name="Trazado 10643" d="M409.63,137.527q3.1-7.124,11.643-7.123v8.962a11.987,11.987,0,0,0-8.165,2.26q-3.478,2.564-3.478,8.462v19.3h-8.166V131.094h8.166Z" transform="translate(193.954 66.183)" fill="#ee631a"/>
      <rect id="Rectángulo_7216" data-name="Rectángulo 7216" width="90.903" height="10.309" transform="translate(48.084 206.583)" fill="#ee631a"/>
      <rect id="Rectángulo_7217" data-name="Rectángulo 7217" width="90.905" height="10.309" transform="translate(630.582 206.583)" fill="#ee631a"/>
    </g>
  </g>
</svg>
