<svg width="17" height="20" viewBox="0 0 17 20" fill="none" xmlns="http://www.w3.org/2000/svg">
<path d="M10.7479 0.5C10.9626 0.501869 11.1724 0.564461 11.3531 0.680543C11.5338 0.796626 11.6779 0.961461 11.7689 1.156L12.0259 1.687H15.4549C15.608 1.68986 15.759 1.72287 15.8993 1.78414C16.0396 1.84541 16.1665 1.93374 16.2726 2.04407C16.3788 2.15441 16.4621 2.28458 16.518 2.42716C16.5738 2.56974 16.6009 2.72192 16.5979 2.875C16.6009 3.02808 16.5738 3.18026 16.518 3.32284C16.4621 3.46542 16.3788 3.59559 16.2726 3.70593C16.1665 3.81626 16.0396 3.90459 15.8993 3.96586C15.759 4.02713 15.608 4.06014 15.4549 4.063H1.74087C1.43178 4.05696 1.13775 3.92842 0.92341 3.70564C0.709072 3.48287 0.591976 3.18409 0.597868 2.875C0.591976 2.56591 0.709072 2.26713 0.92341 2.04436C1.13775 1.82158 1.43178 1.69304 1.74087 1.687H5.16887L5.42687 1.156C5.51782 0.961461 5.66196 0.796626 5.84263 0.680543C6.0233 0.564461 6.23313 0.501869 6.44787 0.5L10.7479 0.5Z" fill="#17645D"/>
<path opacity="0.4" d="M15.4546 17.125C15.4656 17.7429 15.2311 18.3399 14.8026 18.7851C14.374 19.2303 13.7864 19.4874 13.1686 19.5H4.02662C3.40871 19.4877 2.82095 19.2306 2.39236 18.7854C1.96377 18.3401 1.72937 17.7429 1.74062 17.125V4.06201H15.4546V17.125ZM5.74062 7.03101C5.74385 6.95395 5.73145 6.87703 5.70418 6.80489C5.67692 6.73274 5.63534 6.66685 5.58195 6.61118C5.52857 6.55552 5.46448 6.51122 5.39353 6.48096C5.32258 6.4507 5.24625 6.4351 5.16912 6.4351C5.09199 6.4351 5.01566 6.4507 4.94472 6.48096C4.87377 6.51122 4.80967 6.55552 4.75629 6.61118C4.7029 6.66685 4.66132 6.73274 4.63406 6.80489C4.60679 6.87703 4.5944 6.95395 4.59762 7.03101V15.343C4.5944 15.4201 4.60679 15.497 4.63406 15.5691C4.66132 15.6413 4.7029 15.7072 4.75629 15.7628C4.80967 15.8185 4.87377 15.8628 4.94472 15.8931C5.01566 15.9233 5.09199 15.9389 5.16912 15.9389C5.24625 15.9389 5.32258 15.9233 5.39353 15.8931C5.46448 15.8628 5.52857 15.8185 5.58195 15.7628C5.63534 15.7072 5.67692 15.6413 5.70418 15.5691C5.73145 15.497 5.74385 15.4201 5.74062 15.343V7.03101ZM9.16962 7.03101C9.17285 6.95395 9.16045 6.87703 9.13318 6.80489C9.10592 6.73274 9.06434 6.66685 9.01095 6.61118C8.95757 6.55552 8.89347 6.51122 8.82253 6.48096C8.75158 6.4507 8.67525 6.4351 8.59812 6.4351C8.52099 6.4351 8.44466 6.4507 8.37371 6.48096C8.30277 6.51122 8.23868 6.55552 8.18529 6.61118C8.1319 6.66685 8.09033 6.73274 8.06306 6.80489C8.03579 6.87703 8.0234 6.95395 8.02662 7.03101V15.343C8.0234 15.4201 8.03579 15.497 8.06306 15.5691C8.09033 15.6413 8.1319 15.7072 8.18529 15.7628C8.23868 15.8185 8.30277 15.8628 8.37371 15.8931C8.44466 15.9233 8.52099 15.9389 8.59812 15.9389C8.67525 15.9389 8.75158 15.9233 8.82253 15.8931C8.89347 15.8628 8.95757 15.8185 9.01095 15.7628C9.06434 15.7072 9.10592 15.6413 9.13318 15.5691C9.16045 15.497 9.17285 15.4201 9.16962 15.343V7.03101ZM12.5986 7.03101C12.6018 6.95395 12.5895 6.87703 12.5622 6.80489C12.5349 6.73274 12.4933 6.66685 12.44 6.61118C12.3866 6.55552 12.3225 6.51122 12.2515 6.48096C12.1806 6.4507 12.1042 6.4351 12.0271 6.4351C11.95 6.4351 11.8737 6.4507 11.8027 6.48096C11.7318 6.51122 11.6677 6.55552 11.6143 6.61118C11.5609 6.66685 11.5193 6.73274 11.4921 6.80489C11.4648 6.87703 11.4524 6.95395 11.4556 7.03101V15.343C11.4524 15.4201 11.4648 15.497 11.4921 15.5691C11.5193 15.6413 11.5609 15.7072 11.6143 15.7628C11.6677 15.8185 11.7318 15.8628 11.8027 15.8931C11.8737 15.9233 11.95 15.9389 12.0271 15.9389C12.1042 15.9389 12.1806 15.9233 12.2515 15.8931C12.3225 15.8628 12.3866 15.8185 12.44 15.7628C12.4933 15.7072 12.5349 15.6413 12.5622 15.5691C12.5895 15.497 12.6018 15.4201 12.5986 15.343V7.03101Z" fill="#17645D"/>
</svg>
